<svg width="24" height="24" viewBox="0 0 24 24" fill="none" xmlns="http://www.w3.org/2000/svg">
<path d="M12 24C18.6274 24 24 18.6274 24 12C24 5.37258 18.6274 0 12 0C5.37258 0 0 5.37258 0 12C0 18.6274 5.37258 24 12 24Z" fill="#EEEEEE"/>
<path d="M12 4.875C13.0355 4.875 13.875 4.03553 13.875 3C13.875 1.96447 13.0355 1.125 12 1.125C10.9645 1.125 10.125 1.96447 10.125 3C10.125 4.03553 10.9645 4.875 12 4.875Z" fill="#ABE252"/>
<path d="M12 9.375C13.0355 9.375 13.875 8.53553 13.875 7.5C13.875 6.46447 13.0355 5.625 12 5.625C10.9645 5.625 10.125 6.46447 10.125 7.5C10.125 8.53553 10.9645 9.375 12 9.375Z" fill="#4F9FDF"/>
<path d="M8.10254 7.125C9.13807 7.125 9.97754 6.28553 9.97754 5.25C9.97754 4.21447 9.13807 3.375 8.10254 3.375C7.06701 3.375 6.22754 4.21447 6.22754 5.25C6.22754 6.28553 7.06701 7.125 8.10254 7.125Z" fill="#D5643A"/>
<path d="M4.20605 9.375C5.24159 9.375 6.08105 8.53553 6.08105 7.5C6.08105 6.46447 5.24159 5.625 4.20605 5.625C3.17052 5.625 2.33105 6.46447 2.33105 7.5C2.33105 8.53553 3.17052 9.375 4.20605 9.375Z" fill="#ABE252"/>
<path d="M8.10254 11.625C9.13807 11.625 9.97754 10.7855 9.97754 9.75C9.97754 8.71447 9.13807 7.875 8.10254 7.875C7.06701 7.875 6.22754 8.71447 6.22754 9.75C6.22754 10.7855 7.06701 11.625 8.10254 11.625Z" fill="#4F9FDF"/>
<path d="M4.20605 13.875C5.24159 13.875 6.08105 13.0355 6.08105 12C6.08105 10.9645 5.24159 10.125 4.20605 10.125C3.17052 10.125 2.33105 10.9645 2.33105 12C2.33105 13.0355 3.17052 13.875 4.20605 13.875Z" fill="#E8B493"/>
<path d="M4.20605 18.375C5.24159 18.375 6.08105 17.5355 6.08105 16.5C6.08105 15.4645 5.24159 14.625 4.20605 14.625C3.17052 14.625 2.33105 15.4645 2.33105 16.5C2.33105 17.5355 3.17052 18.375 4.20605 18.375Z" fill="#D342C3"/>
<path d="M8.10254 16.125C9.13807 16.125 9.97754 15.2855 9.97754 14.25C9.97754 13.2145 9.13807 12.375 8.10254 12.375C7.06701 12.375 6.22754 13.2145 6.22754 14.25C6.22754 15.2855 7.06701 16.125 8.10254 16.125Z" fill="#D342C3"/>
<path d="M8.10254 20.625C9.13807 20.625 9.97754 19.7855 9.97754 18.75C9.97754 17.7145 9.13807 16.875 8.10254 16.875C7.06701 16.875 6.22754 17.7145 6.22754 18.75C6.22754 19.7855 7.06701 20.625 8.10254 20.625Z" fill="#E8B493"/>
<path d="M12 22.875C13.0355 22.875 13.875 22.0355 13.875 21C13.875 19.9645 13.0355 19.125 12 19.125C10.9645 19.125 10.125 19.9645 10.125 21C10.125 22.0355 10.9645 22.875 12 22.875Z" fill="#ABE252"/>
<path d="M12 18.375C13.0355 18.375 13.875 17.5355 13.875 16.5C13.875 15.4645 13.0355 14.625 12 14.625C10.9645 14.625 10.125 15.4645 10.125 16.5C10.125 17.5355 10.9645 18.375 12 18.375Z" fill="#4F9FDF"/>
<path d="M15.8975 20.625C16.933 20.625 17.7725 19.7855 17.7725 18.75C17.7725 17.7145 16.933 16.875 15.8975 16.875C14.8619 16.875 14.0225 17.7145 14.0225 18.75C14.0225 19.7855 14.8619 20.625 15.8975 20.625Z" fill="#D5643A"/>
<path d="M19.7939 18.375C20.8295 18.375 21.6689 17.5355 21.6689 16.5C21.6689 15.4645 20.8295 14.625 19.7939 14.625C18.7584 14.625 17.9189 15.4645 17.9189 16.5C17.9189 17.5355 18.7584 18.375 19.7939 18.375Z" fill="#ABE252"/>
<path d="M15.8975 16.125C16.933 16.125 17.7725 15.2855 17.7725 14.25C17.7725 13.2145 16.933 12.375 15.8975 12.375C14.8619 12.375 14.0225 13.2145 14.0225 14.25C14.0225 15.2855 14.8619 16.125 15.8975 16.125Z" fill="#4F9FDF"/>
<path d="M19.7939 13.875C20.8295 13.875 21.6689 13.0355 21.6689 12C21.6689 10.9645 20.8295 10.125 19.7939 10.125C18.7584 10.125 17.9189 10.9645 17.9189 12C17.9189 13.0355 18.7584 13.875 19.7939 13.875Z" fill="#E8B493"/>
<path d="M19.7939 9.375C20.8295 9.375 21.6689 8.53553 21.6689 7.5C21.6689 6.46447 20.8295 5.625 19.7939 5.625C18.7584 5.625 17.9189 6.46447 17.9189 7.5C17.9189 8.53553 18.7584 9.375 19.7939 9.375Z" fill="#D342C3"/>
<path d="M15.8975 11.625C16.933 11.625 17.7725 10.7855 17.7725 9.75C17.7725 8.71447 16.933 7.875 15.8975 7.875C14.8619 7.875 14.0225 8.71447 14.0225 9.75C14.0225 10.7855 14.8619 11.625 15.8975 11.625Z" fill="#D342C3"/>
<path d="M15.8975 7.125C16.933 7.125 17.7725 6.28553 17.7725 5.25C17.7725 4.21447 16.933 3.375 15.8975 3.375C14.8619 3.375 14.0225 4.21447 14.0225 5.25C14.0225 6.28553 14.8619 7.125 15.8975 7.125Z" fill="#E8B493"/>
<path d="M12 13.875C13.0355 13.875 13.875 13.0355 13.875 12C13.875 10.9645 13.0355 10.125 12 10.125C10.9645 10.125 10.125 10.9645 10.125 12C10.125 13.0355 10.9645 13.875 12 13.875Z" fill="#3F1A0D"/>
</svg>
