<svg width="24" height="24" viewBox="0 0 24 24" fill="none" xmlns="http://www.w3.org/2000/svg">
<g clip-path="url(#clip0_2_649)">
<path fill-rule="evenodd" clip-rule="evenodd" d="M12 0C18.6274 0 24 5.37257 24 12C24 18.6274 18.6274 24 12 24C5.37257 24 0 18.6274 0 12C0 5.37257 5.37257 0 12 0Z" fill="#646464"/>
<path fill-rule="evenodd" clip-rule="evenodd" d="M12.1878 2.05134C12.0901 1.96117 12.045 1.96117 12.0375 1.96117C12.03 1.96117 11.9774 1.96117 11.8872 2.05134C11.7896 2.14151 11.6693 2.29931 11.5491 2.53976C11.3011 3.02066 11.0532 3.74201 10.8503 4.67376C10.6174 5.72573 10.4295 7.00313 10.3168 8.43832C10.8804 8.70883 11.4589 9.00939 12.045 9.32498C12.6311 9.00939 13.2097 8.70883 13.7733 8.43832C13.6606 7.00313 13.4727 5.71822 13.2398 4.67376C13.0294 3.74201 12.7889 3.02066 12.541 2.53976C12.4057 2.29931 12.2855 2.14151 12.1878 2.05134ZM11.5416 9.59549C11.1133 9.36255 10.685 9.15216 10.2717 8.94176C10.2417 9.40764 10.2191 9.88102 10.1966 10.3694C10.4145 10.2342 10.6399 10.1064 10.8653 9.97871C11.0907 9.85097 11.3162 9.71571 11.5416 9.59549ZM9.85092 8.22792C10.1891 4.29054 11.0381 1.4953 12.03 1.4953C13.0219 1.4953 13.871 4.29054 14.2091 8.22792C17.7933 6.55228 20.6336 5.89104 21.1296 6.74765C21.6255 7.61177 19.6268 9.73826 16.3882 12C19.6343 14.2617 21.6255 16.3957 21.1296 17.2523C20.6336 18.1165 17.7858 17.4477 14.2091 15.7721C13.871 19.7095 13.0219 22.5047 12.03 22.5047C11.0381 22.5047 10.1891 19.7095 9.85092 15.7721C6.2667 17.4477 3.42638 18.109 2.93045 17.2523C2.43452 16.3882 4.43326 14.2617 7.67184 12C4.43326 9.73826 2.43452 7.60426 2.93045 6.74765C3.42638 5.88353 6.27422 6.54477 9.85092 8.22792ZM8.08511 11.7145C6.89789 10.8954 5.87597 10.0914 5.08699 9.37007C4.38067 8.72385 3.87722 8.15278 3.58417 7.69442C3.44141 7.469 3.36626 7.28866 3.33621 7.15341C3.30615 7.02567 3.32869 6.98059 3.33621 6.98059C3.34372 6.97307 3.36626 6.9355 3.48649 6.89042C3.61423 6.85285 3.8096 6.8303 4.0801 6.83782C4.62112 6.86036 5.36501 7.01064 6.28173 7.29618C7.31116 7.61928 8.51342 8.10019 9.81335 8.71634C9.76827 9.34001 9.73821 9.98622 9.71567 10.655C9.15211 11.0157 8.60358 11.3613 8.08511 11.7145ZM8.08511 12.2855C6.89789 13.1046 5.87597 13.9086 5.08699 14.6299C4.38067 15.2761 3.87722 15.8472 3.58417 16.3056C3.44141 16.531 3.36626 16.7113 3.33621 16.8466C3.30615 16.9743 3.32869 17.0194 3.33621 17.0194C3.34372 17.0269 3.36626 17.0645 3.48649 17.1096C3.61423 17.1472 3.8096 17.1697 4.0801 17.1622C4.62112 17.1396 5.36501 16.9894 6.28173 16.7038C7.31116 16.3807 8.51342 15.8998 9.81335 15.2837C9.76827 14.66 9.73821 14.0138 9.71567 13.345C9.15211 12.9843 8.60358 12.6312 8.08511 12.2855ZM9.70816 12.7739C9.29488 12.5185 8.88912 12.2555 8.5059 12C8.88912 11.7445 9.29488 11.4815 9.70816 11.226C9.70064 11.4815 9.70064 11.7445 9.70064 12C9.70064 12.263 9.70064 12.5185 9.70816 12.7739ZM10.1815 13.067C10.174 12.7138 10.1665 12.3607 10.1665 12C10.1665 11.6393 10.174 11.2786 10.1815 10.933C10.4821 10.7527 10.7902 10.5648 11.1058 10.3845C11.4214 10.2041 11.7294 10.0313 12.0375 9.85848C12.3456 10.0238 12.6612 10.2041 12.9693 10.3845C13.2849 10.5648 13.5929 10.7451 13.8935 10.933C13.901 11.2862 13.9085 11.6393 13.9085 12C13.9085 12.3607 13.901 12.7214 13.8935 13.067C13.5929 13.2473 13.2849 13.4352 12.9693 13.6155C12.6537 13.7959 12.3456 13.9687 12.0375 14.1415C11.7294 13.9762 11.4139 13.7959 11.1058 13.6155C10.7902 13.4352 10.4821 13.2549 10.1815 13.067ZM10.1966 13.6306C10.2116 14.119 10.2417 14.5924 10.2717 15.0582C10.685 14.8554 11.1133 14.6374 11.5416 14.4045C11.3162 14.2768 11.0907 14.149 10.8653 14.0213C10.6399 13.8935 10.4145 13.7583 10.1966 13.6306ZM12.0375 14.675C11.4514 14.9906 10.8728 15.2912 10.3093 15.5617C10.422 16.9969 10.6098 18.2818 10.8428 19.3262C11.0532 20.258 11.2936 20.9793 11.5416 21.4602C11.6693 21.7007 11.782 21.8585 11.8797 21.9487C11.9774 22.0388 12.0225 22.0388 12.03 22.0388C12.0375 22.0388 12.0901 22.0388 12.1803 21.9487C12.278 21.8585 12.3982 21.7007 12.5184 21.4602C12.7664 20.9793 13.0144 20.258 13.2172 19.3262C13.4502 18.2743 13.638 16.9969 13.7507 15.5617C13.2022 15.2837 12.6236 14.9906 12.0375 14.675ZM14.2542 15.2761C15.5541 15.8923 16.7564 16.3732 17.7858 16.6963C18.695 16.9818 19.4464 17.1396 19.9874 17.1547C20.2579 17.1622 20.4533 17.1396 20.581 17.1021C20.7013 17.0645 20.7313 17.0194 20.7313 17.0119C20.7388 17.0044 20.7614 16.9593 20.7313 16.8391C20.7013 16.7113 20.6261 16.531 20.4834 16.2981C20.1978 15.8397 19.6869 15.2686 18.9805 14.6224C18.184 13.8935 17.1696 13.0971 15.9824 12.278C15.4639 12.6312 14.9229 12.9768 14.3519 13.33C14.3368 14.0063 14.2993 14.6525 14.2542 15.2761ZM15.9824 11.7145C17.1696 10.8954 18.1916 10.0914 18.9805 9.37007C19.6869 8.72385 20.1903 8.15278 20.4834 7.69442C20.6261 7.469 20.7013 7.28866 20.7313 7.15341C20.7614 7.02567 20.7388 6.98059 20.7313 6.98059C20.7238 6.97307 20.7013 6.9355 20.581 6.89042C20.4533 6.85285 20.2579 6.8303 19.9874 6.83782C19.4464 6.86036 18.7025 7.01064 17.7858 7.29618C16.7564 7.61928 15.5541 8.10019 14.2542 8.71634C14.2993 9.34001 14.3293 9.98622 14.3519 10.655C14.9229 11.0157 15.4639 11.3613 15.9824 11.7145ZM14.3669 11.226C14.7802 11.4815 15.1784 11.7445 15.5691 12C15.1859 12.2555 14.7802 12.5185 14.3669 12.7739C14.3744 12.5185 14.3744 12.2555 14.3744 12C14.3744 11.7445 14.3669 11.4815 14.3669 11.226ZM13.871 10.3694C13.8559 9.88102 13.8259 9.40764 13.7958 8.94176C13.3825 9.14464 12.9542 9.36255 12.5259 9.59549C12.7514 9.72323 12.9768 9.85097 13.2022 9.97871C13.4276 10.1064 13.6531 10.2417 13.871 10.3694ZM13.8033 15.0582C13.3901 14.8554 12.9618 14.6374 12.5335 14.4045C12.7589 14.2768 12.9843 14.149 13.2097 14.0213C13.4351 13.8935 13.6606 13.7583 13.8785 13.6306C13.8559 14.119 13.8334 14.5924 13.8033 15.0582Z" fill="white"/>
<path fill-rule="evenodd" clip-rule="evenodd" d="M5.32 9.0545C5.72576 9.0545 6.05638 9.38512 6.05638 9.79088C6.05638 10.1966 5.72576 10.5273 5.32 10.5273C4.91424 10.5273 4.58362 10.1966 4.58362 9.79088C4.58362 9.38512 4.91424 9.0545 5.32 9.0545Z" fill="white"/>
<path fill-rule="evenodd" clip-rule="evenodd" d="M17.0645 6.52972C17.4703 6.52972 17.8009 6.86034 17.8009 7.26611C17.8009 7.67187 17.4703 8.00249 17.0645 8.00249C16.6587 8.00249 16.3281 7.67187 16.3281 7.26611C16.3206 6.86034 16.6512 6.52972 17.0645 6.52972Z" fill="white"/>
<path fill-rule="evenodd" clip-rule="evenodd" d="M10.5497 18.124C10.9555 18.124 11.2861 18.4546 11.2861 18.8603C11.2861 19.2661 10.9555 19.5967 10.5497 19.5967C10.144 19.5967 9.81336 19.2661 9.81336 18.8603C9.80584 18.4546 10.1365 18.124 10.5497 18.124Z" fill="white"/>
<path fill-rule="evenodd" clip-rule="evenodd" d="M11.9925 10.7451C12.6838 10.7451 13.2474 11.3087 13.2474 12C13.2474 12.6913 12.6838 13.2548 11.9925 13.2548C11.3012 13.2548 10.7377 12.6913 10.7377 12C10.7377 11.3087 11.3012 10.7451 11.9925 10.7451Z" fill="white"/>
</g>
<defs>
<clipPath id="clip0_2_649">
<rect width="24" height="24" fill="white"/>
</clipPath>
</defs>
</svg>
