<svg width="24" height="24" viewBox="0 0 24 24" fill="none" xmlns="http://www.w3.org/2000/svg">
<g clip-path="url(#clip0_308_3555)">
<path d="M12 1C18.0751 1 23 5.92486 23 12C23 18.0751 18.0751 23 12 23C5.92486 23 1 18.0751 1 12C1 5.92486 5.92486 1 12 1Z" stroke="white" stroke-opacity="0.24" stroke-width="2"/>
<path fill-rule="evenodd" clip-rule="evenodd" d="M12.188 2.0514C12.0904 1.96123 12.0453 1.96123 12.0378 1.96123C12.0303 1.96123 11.9777 1.96123 11.8875 2.0514C11.7898 2.14157 11.6696 2.29937 11.5494 2.53982C11.3014 3.02072 11.0534 3.74207 10.8505 4.67382C10.6176 5.72579 10.4298 7.00319 10.317 8.43838C10.8806 8.70889 11.4592 9.00945 12.0453 9.32504C12.6314 9.00945 13.21 8.70889 13.7735 8.43838C13.6608 7.00319 13.473 5.71828 13.24 4.67382C13.0296 3.74207 12.7892 3.02072 12.5412 2.53982C12.406 2.29937 12.2857 2.14157 12.188 2.0514ZM11.5418 9.59555C11.1135 9.36261 10.6852 9.15222 10.272 8.94182C10.2419 9.4077 10.2194 9.88109 10.1968 10.3695C10.4147 10.2342 10.6401 10.1065 10.8656 9.97877C11.091 9.85103 11.3164 9.71578 11.5418 9.59555ZM9.85117 8.22799C10.1893 4.2906 11.0384 1.49536 12.0303 1.49536C13.0221 1.49536 13.8712 4.2906 14.2093 8.22799C17.7936 6.55234 20.6339 5.8911 21.1298 6.74771C21.6257 7.61183 19.627 9.73832 16.3884 12.0001C19.6345 14.2618 21.6257 16.3958 21.1298 17.2524C20.6339 18.1165 17.786 17.4478 14.2093 15.7721C13.8712 19.7095 13.0221 22.5048 12.0303 22.5048C11.0384 22.5048 10.1893 19.7095 9.85117 15.7721C6.26695 17.4478 3.42662 18.109 2.93069 17.2524C2.43476 16.3883 4.43351 14.2618 7.67208 12.0001C4.43351 9.73832 2.43476 7.60432 2.93069 6.74771C3.42662 5.88359 6.27446 6.54483 9.85117 8.22799ZM8.08536 11.7145C6.89813 10.8955 5.87621 10.0915 5.08723 9.37013C4.38091 8.72392 3.87747 8.15284 3.58442 7.69449C3.44165 7.46906 3.36651 7.28872 3.33645 7.15347C3.3064 7.02573 3.32894 6.98065 3.33645 6.98065C3.34397 6.97313 3.36651 6.93556 3.48673 6.89048C3.61447 6.85291 3.80984 6.83037 4.08035 6.83788C4.62136 6.86042 5.36526 7.0107 6.28197 7.29624C7.31141 7.61934 8.51366 8.10025 9.8136 8.7164C9.76851 9.34007 9.73846 9.98628 9.71591 10.655C9.15236 11.0157 8.60383 11.3614 8.08536 11.7145ZM8.08536 12.2856C6.89813 13.1046 5.87621 13.9086 5.08723 14.63C4.38091 15.2762 3.87747 15.8473 3.58442 16.3056C3.44165 16.5311 3.36651 16.7114 3.33645 16.8466C3.3064 16.9744 3.32894 17.0195 3.33645 17.0195C3.34397 17.027 3.36651 17.0646 3.48673 17.1096C3.61447 17.1472 3.80984 17.1698 4.08035 17.1622C4.62136 17.1397 5.36526 16.9894 6.28197 16.7039C7.31141 16.3808 8.51366 15.8999 9.8136 15.2837C9.76851 14.66 9.73846 14.0138 9.71591 13.3451C9.15236 12.9844 8.60383 12.6312 8.08536 12.2856ZM9.7084 12.774C9.29512 12.5185 8.88936 12.2555 8.50615 12.0001C8.88936 11.7446 9.29512 11.4816 9.7084 11.2261C9.70089 11.4816 9.70089 11.7446 9.70089 12.0001C9.70089 12.2631 9.70089 12.5185 9.7084 12.774ZM10.1818 13.0671C10.1743 12.7139 10.1668 12.3607 10.1668 12.0001C10.1668 11.6394 10.1743 11.2787 10.1818 10.9331C10.4824 10.7527 10.7904 10.5649 11.106 10.3845C11.4216 10.2042 11.7297 10.0314 12.0378 9.85854C12.3458 10.0239 12.6614 10.2042 12.9695 10.3845C13.2851 10.5649 13.5932 10.7452 13.8937 10.9331C13.9013 11.2862 13.9088 11.6394 13.9088 12.0001C13.9088 12.3607 13.9013 12.7214 13.8937 13.0671C13.5932 13.2474 13.2851 13.4353 12.9695 13.6156C12.6539 13.7959 12.3458 13.9688 12.0378 14.1416C11.7297 13.9763 11.4141 13.7959 11.106 13.6156C10.7904 13.4353 10.4824 13.2549 10.1818 13.0671ZM10.1968 13.6306C10.2118 14.119 10.2419 14.5924 10.272 15.0583C10.6852 14.8554 11.1135 14.6375 11.5418 14.4046C11.3164 14.2768 11.091 14.1491 10.8656 14.0214C10.6401 13.8936 10.4147 13.7584 10.1968 13.6306ZM12.0378 14.6751C11.4517 14.9907 10.8731 15.2912 10.3095 15.5617C10.4222 16.9969 10.6101 18.2818 10.843 19.3263C11.0534 20.258 11.2939 20.9794 11.5418 21.4603C11.6696 21.7008 11.7823 21.8585 11.88 21.9487C11.9777 22.0389 12.0227 22.0389 12.0303 22.0389C12.0378 22.0389 12.0904 22.0389 12.1805 21.9487C12.2782 21.8585 12.3984 21.7008 12.5187 21.4603C12.7666 20.9794 13.0146 20.258 13.2175 19.3263C13.4504 18.2743 13.6383 16.9969 13.751 15.5617C13.2025 15.2837 12.6239 14.9907 12.0378 14.6751ZM14.2544 15.2762C15.5544 15.8924 16.7566 16.3733 17.786 16.6964C18.6953 16.9819 19.4467 17.1397 19.9877 17.1547C20.2582 17.1622 20.4535 17.1397 20.5813 17.1021C20.7015 17.0646 20.7316 17.0195 20.7316 17.012C20.7391 17.0044 20.7616 16.9594 20.7316 16.8391C20.7015 16.7114 20.6264 16.5311 20.4836 16.2981C20.1981 15.8398 19.6871 15.2687 18.9808 14.6225C18.1843 13.8936 17.1699 13.0971 15.9827 12.2781C15.4642 12.6312 14.9232 12.9769 14.3521 13.3301C14.3371 14.0063 14.2995 14.6525 14.2544 15.2762ZM15.9827 11.7145C17.1699 10.8955 18.1918 10.0915 18.9808 9.37013C19.6871 8.72392 20.1906 8.15284 20.4836 7.69449C20.6264 7.46906 20.7015 7.28872 20.7316 7.15347C20.7616 7.02573 20.7391 6.98065 20.7316 6.98065C20.7241 6.97313 20.7015 6.93556 20.5813 6.89048C20.4535 6.85291 20.2582 6.83037 19.9877 6.83788C19.4467 6.86042 18.7028 7.0107 17.786 7.29624C16.7566 7.61934 15.5544 8.10025 14.2544 8.7164C14.2995 9.34007 14.3296 9.98628 14.3521 10.655C14.9232 11.0157 15.4642 11.3614 15.9827 11.7145ZM14.3671 11.2261C14.7804 11.4816 15.1787 11.7446 15.5694 12.0001C15.1862 12.2555 14.7804 12.5185 14.3671 12.774C14.3746 12.5185 14.3746 12.2555 14.3746 12.0001C14.3746 11.7446 14.3671 11.4816 14.3671 11.2261ZM13.8712 10.3695C13.8562 9.88109 13.8261 9.4077 13.7961 8.94182C13.3828 9.1447 12.9545 9.36261 12.5262 9.59555C12.7516 9.72329 12.977 9.85103 13.2025 9.97877C13.4279 10.1065 13.6533 10.2418 13.8712 10.3695ZM13.8036 15.0583C13.3903 14.8554 12.962 14.6375 12.5337 14.4046C12.7591 14.2768 12.9845 14.1491 13.21 14.0214C13.4354 13.8936 13.6608 13.7584 13.8787 13.6306C13.8562 14.119 13.8336 14.5924 13.8036 15.0583Z" fill="white" fill-opacity="0.6"/>
<path fill-rule="evenodd" clip-rule="evenodd" d="M5.32037 9.05444C5.72613 9.05444 6.05675 9.38506 6.05675 9.79082C6.05675 10.1966 5.72613 10.5272 5.32037 10.5272C4.9146 10.5272 4.58398 10.1966 4.58398 9.79082C4.58398 9.38506 4.9146 9.05444 5.32037 9.05444Z" fill="white"/>
<path fill-rule="evenodd" clip-rule="evenodd" d="M17.0646 6.52979C17.4704 6.52979 17.801 6.86041 17.801 7.26617C17.801 7.67193 17.4704 8.00255 17.0646 8.00255C16.6589 8.00255 16.3283 7.67193 16.3283 7.26617C16.3207 6.86041 16.6514 6.52979 17.0646 6.52979Z" fill="white"/>
<path fill-rule="evenodd" clip-rule="evenodd" d="M10.55 18.124C10.9557 18.124 11.2864 18.4546 11.2864 18.8604C11.2864 19.2662 10.9557 19.5968 10.55 19.5968C10.1442 19.5968 9.8136 19.2662 9.8136 18.8604C9.80609 18.4546 10.1367 18.124 10.55 18.124Z" fill="white"/>
<path fill-rule="evenodd" clip-rule="evenodd" d="M11.9922 10.7451C12.6835 10.7451 13.247 11.3087 13.247 12C13.247 12.6913 12.6835 13.2548 11.9922 13.2548C11.3009 13.2548 10.7373 12.6913 10.7373 12C10.7373 11.3087 11.3009 10.7451 11.9922 10.7451Z" fill="white"/>
</g>
<defs>
<clipPath id="clip0_308_3555">
<rect width="24" height="24" fill="white"/>
</clipPath>
</defs>
</svg>
