<svg width="24" height="24" viewBox="0 0 24 24" fill="none" xmlns="http://www.w3.org/2000/svg">
<g style="mix-blend-mode:luminosity">
<circle cx="12" cy="12" r="12" fill="#646464"/>
<path d="M12.0004 7.35614C13.5231 7.35614 14.7576 6.60484 14.7576 5.67807C14.7576 4.7513 13.5231 4 12.0004 4C10.4776 4 9.24316 4.7513 9.24316 5.67807C9.24316 6.60484 10.4776 7.35614 12.0004 7.35614Z" fill="white"/>
<path d="M12.0004 20.0001C13.5231 20.0001 14.7576 19.2488 14.7576 18.322C14.7576 17.3953 13.5231 16.644 12.0004 16.644C10.4776 16.644 9.24316 17.3953 9.24316 18.322C9.24316 19.2488 10.4776 20.0001 12.0004 20.0001Z" fill="white"/>
<path d="M8.1579 9.67894C8.91928 8.29898 8.91434 6.80439 8.14686 6.34069C7.37938 5.87699 6.13999 6.61977 5.37861 7.99974C4.61722 9.37971 4.62217 10.8743 5.38965 11.338C6.15713 11.8017 7.39652 11.0589 8.1579 9.67894Z" fill="white"/>
<path d="M18.6199 16.0002C19.3813 14.6202 19.3768 13.1259 18.6098 12.6625C17.8428 12.1991 16.6039 12.9421 15.8425 14.3221C15.0811 15.7021 15.0856 17.1964 15.8526 17.6598C16.6195 18.1232 17.8585 17.3801 18.6199 16.0002Z" fill="white"/>
<path d="M8.14784 17.6595C8.91532 17.1958 8.92026 15.7012 8.15888 14.3213C7.39749 12.9413 6.1581 12.1985 5.39062 12.6622C4.62314 13.1259 4.6182 14.6205 5.37958 16.0005C6.14097 17.3804 7.38036 18.1232 8.14784 17.6595Z" fill="white"/>
<path d="M18.6108 11.3385C19.3777 10.8751 19.3823 9.38077 18.6209 8.0008C17.8595 6.62083 16.6205 5.8778 15.8536 6.34118C15.0866 6.80457 15.0821 8.2989 15.8435 9.67887C16.6048 11.0588 17.8438 11.8019 18.6108 11.3385Z" fill="white"/>
</g>
</svg>
