<svg width="24" height="24" viewBox="0 0 24 24" fill="none" xmlns="http://www.w3.org/2000/svg">
<circle cx="12" cy="12" r="11" stroke="white" stroke-opacity="0.24" stroke-width="2"/>
<path d="M12.0004 7.35626C13.5231 7.35626 14.7576 6.60496 14.7576 5.67819C14.7576 4.75142 13.5231 4.00012 12.0004 4.00012C10.4776 4.00012 9.24316 4.75142 9.24316 5.67819C9.24316 6.60496 10.4776 7.35626 12.0004 7.35626Z" fill="white" fill-opacity="0.8"/>
<path d="M12.0004 20.0001C13.5231 20.0001 14.7576 19.2488 14.7576 18.322C14.7576 17.3952 13.5231 16.6439 12.0004 16.6439C10.4776 16.6439 9.24316 17.3952 9.24316 18.322C9.24316 19.2488 10.4776 20.0001 12.0004 20.0001Z" fill="white" fill-opacity="0.8"/>
<path d="M8.15692 9.67909C8.91831 8.29912 8.91337 6.80453 8.14589 6.34083C7.37841 5.87713 6.13902 6.61992 5.37763 7.99988C4.61625 9.37985 4.62119 10.8744 5.38867 11.3381C6.15615 11.8018 7.39554 11.0591 8.15692 9.67909Z" fill="white" fill-opacity="0.8"/>
<path d="M18.6199 16.0002C19.3813 14.6202 19.3768 13.1259 18.6098 12.6625C17.8428 12.1991 16.6039 12.9422 15.8425 14.3221C15.0811 15.7021 15.0856 17.1964 15.8526 17.6598C16.6195 18.1232 17.8585 17.3802 18.6199 16.0002Z" fill="white" fill-opacity="0.8"/>
<path d="M8.14589 17.6595C8.91337 17.1958 8.91831 15.7012 8.15692 14.3213C7.39554 12.9413 6.15615 12.1985 5.38867 12.6622C4.62119 13.1259 4.61625 14.6205 5.37763 16.0005C6.13902 17.3804 7.37841 18.1232 8.14589 17.6595Z" fill="white" fill-opacity="0.8"/>
<path d="M18.6098 11.3386C19.3768 10.8752 19.3813 9.38085 18.6199 8.00088C17.8585 6.62091 16.6195 5.87788 15.8526 6.34126C15.0856 6.80465 15.0811 8.29898 15.8425 9.67895C16.6039 11.0589 17.8428 11.802 18.6098 11.3386Z" fill="white" fill-opacity="0.8"/>
</svg>
