<svg width="25" height="24" viewBox="0 0 25 24" fill="none" xmlns="http://www.w3.org/2000/svg">
<g clip-path="url(#clip0_513_12360)">
<path d="M23.3042 1L13.9395 7.87731L15.6712 3.8198L23.3042 1Z" fill="#E2761B" stroke="#E2761B" stroke-width="0.101334" stroke-linecap="round" stroke-linejoin="round"/>
<path d="M1.68652 1L10.976 7.94246L9.32888 3.8198L1.68652 1Z" fill="#E4761B" stroke="#E4761B" stroke-width="0.101334" stroke-linecap="round" stroke-linejoin="round"/>
<path d="M19.9355 16.9414L17.4414 20.7197L22.778 22.1715L24.312 17.0251L19.9355 16.9414Z" fill="#E4761B" stroke="#E4761B" stroke-width="0.101334" stroke-linecap="round" stroke-linejoin="round"/>
<path d="M0.697266 17.0251L2.22198 22.1715L7.55847 20.7197L5.06434 16.9414L0.697266 17.0251Z" fill="#E4761B" stroke="#E4761B" stroke-width="0.101334" stroke-linecap="round" stroke-linejoin="round"/>
<path d="M7.25758 10.5577L5.77051 12.7819L11.0694 13.0146L10.8811 7.38428L7.25758 10.5577Z" fill="#E4761B" stroke="#E4761B" stroke-width="0.101334" stroke-linecap="round" stroke-linejoin="round"/>
<path d="M17.7324 10.5574L14.0618 7.31885L13.9395 13.0143L19.2288 12.7816L17.7324 10.5574Z" fill="#E4761B" stroke="#E4761B" stroke-width="0.101334" stroke-linecap="round" stroke-linejoin="round"/>
<path d="M7.55859 20.7198L10.7398 19.1843L7.99153 17.0625L7.55859 20.7198Z" fill="#E4761B" stroke="#E4761B" stroke-width="0.101334" stroke-linecap="round" stroke-linejoin="round"/>
<path d="M14.25 19.1843L17.4406 20.7198L16.9983 17.0625L14.25 19.1843Z" fill="#E4761B" stroke="#E4761B" stroke-width="0.101334" stroke-linecap="round" stroke-linejoin="round"/>
<path d="M17.4406 20.7201L14.25 19.1846L14.5041 21.2412L14.4759 22.1067L17.4406 20.7201Z" fill="#D7C1B3" stroke="#D7C1B3" stroke-width="0.101334" stroke-linecap="round" stroke-linejoin="round"/>
<path d="M7.55859 20.7201L10.5233 22.1067L10.5045 21.2412L10.7398 19.1846L7.55859 20.7201Z" fill="#D7C1B3" stroke="#D7C1B3" stroke-width="0.101334" stroke-linecap="round" stroke-linejoin="round"/>
<path d="M10.5701 15.7038L7.91602 14.9313L9.78894 14.0845L10.5701 15.7038Z" fill="#233447" stroke="#233447" stroke-width="0.101334" stroke-linecap="round" stroke-linejoin="round"/>
<path d="M14.4199 15.7038L15.2011 14.0845L17.0835 14.9313L14.4199 15.7038Z" fill="#233447" stroke="#233447" stroke-width="0.101334" stroke-linecap="round" stroke-linejoin="round"/>
<path d="M7.55858 20.7197L8.01034 16.9414L5.06445 17.0251L7.55858 20.7197Z" fill="#CD6116" stroke="#CD6116" stroke-width="0.101334" stroke-linecap="round" stroke-linejoin="round"/>
<path d="M16.9893 16.9414L17.441 20.7197L19.9351 17.0251L16.9893 16.9414Z" fill="#CD6116" stroke="#CD6116" stroke-width="0.101334" stroke-linecap="round" stroke-linejoin="round"/>
<path d="M19.2288 12.7817L13.9395 13.0145L14.4289 15.704L15.2101 14.0847L17.0923 14.9315L19.2288 12.7817Z" fill="#CD6116" stroke="#CD6116" stroke-width="0.101334" stroke-linecap="round" stroke-linejoin="round"/>
<path d="M7.9164 14.9315L9.79879 14.0847L10.5705 15.704L11.0693 13.0145L5.77051 12.7817L7.9164 14.9315Z" fill="#CD6116" stroke="#CD6116" stroke-width="0.101334" stroke-linecap="round" stroke-linejoin="round"/>
<path d="M5.77051 12.7817L7.9917 17.0627L7.9164 14.9315L5.77051 12.7817Z" fill="#E4751F" stroke="#E4751F" stroke-width="0.101334" stroke-linecap="round" stroke-linejoin="round"/>
<path d="M17.0931 14.9315L16.999 17.0627L19.2296 12.7817L17.0931 14.9315Z" fill="#E4751F" stroke="#E4751F" stroke-width="0.101334" stroke-linecap="round" stroke-linejoin="round"/>
<path d="M11.0701 13.0146L10.5713 15.7041L11.1925 18.8775L11.3337 14.6991L11.0701 13.0146Z" fill="#E4751F" stroke="#E4751F" stroke-width="0.101334" stroke-linecap="round" stroke-linejoin="round"/>
<path d="M13.9397 13.0146L13.6855 14.6897L13.7985 18.8775L14.4291 15.7041L13.9397 13.0146Z" fill="#E4751F" stroke="#E4751F" stroke-width="0.101334" stroke-linecap="round" stroke-linejoin="round"/>
<path d="M14.4294 15.7041L13.7988 18.8775L14.2506 19.1846L16.9989 17.0628L17.093 14.9316L14.4294 15.7041Z" fill="#F6851B" stroke="#F6851B" stroke-width="0.101334" stroke-linecap="round" stroke-linejoin="round"/>
<path d="M7.91602 14.9316L7.99131 17.0628L10.7396 19.1846L11.1913 18.8775L10.5701 15.7041L7.91602 14.9316Z" fill="#F6851B" stroke="#F6851B" stroke-width="0.101334" stroke-linecap="round" stroke-linejoin="round"/>
<path d="M14.4763 22.1064L14.5045 21.2409L14.2692 21.0362H10.7209L10.5045 21.2409L10.5233 22.1064L7.55859 20.7197L8.59388 21.5573L10.6927 22.9998H14.2974L16.4056 21.5573L17.441 20.7197L14.4763 22.1064Z" fill="#C0AD9E" stroke="#C0AD9E" stroke-width="0.101334" stroke-linecap="round" stroke-linejoin="round"/>
<path d="M14.2498 19.1846L13.7981 18.8774H11.191L10.7392 19.1846L10.5039 21.2412L10.7204 21.0365H14.2686L14.5039 21.2412L14.2498 19.1846Z" fill="#161616" stroke="#161616" stroke-width="0.101334" stroke-linecap="round" stroke-linejoin="round"/>
<path d="M23.6994 8.32402L24.4995 4.52707L23.3041 1L14.25 7.64466L17.7324 10.5575L22.6548 11.9813L23.7465 10.725L23.276 10.39L24.0289 9.71067L23.4453 9.26392L24.1983 8.69627L23.6994 8.32402Z" fill="#763D16" stroke="#763D16" stroke-width="0.101334" stroke-linecap="round" stroke-linejoin="round"/>
<path d="M0.5 4.52707L1.3 8.32402L0.791766 8.69627L1.54471 9.26392L0.97059 9.71067L1.72353 10.39L1.25295 10.725L2.3353 11.9813L7.25768 10.5575L10.7401 7.64466L1.68589 1L0.5 4.52707Z" fill="#763D16" stroke="#763D16" stroke-width="0.101334" stroke-linecap="round" stroke-linejoin="round"/>
<path d="M22.6555 11.9814L17.7331 10.5576L19.2296 12.7817L16.999 17.0627L19.9355 17.0254H24.312L22.6555 11.9814Z" fill="#F6851B" stroke="#F6851B" stroke-width="0.101334" stroke-linecap="round" stroke-linejoin="round"/>
<path d="M7.25729 10.5576L2.33492 11.9814L0.697266 17.0254H5.06434L7.99141 17.0627L5.77023 12.7817L7.25729 10.5576Z" fill="#F6851B" stroke="#F6851B" stroke-width="0.101334" stroke-linecap="round" stroke-linejoin="round"/>
<path d="M13.9399 13.0144L14.2505 7.64469L15.6811 3.81982H9.32812L10.7399 7.64469L11.0693 13.0144L11.1822 14.7081L11.1917 18.8773H13.7987L13.8176 14.7081L13.9399 13.0144Z" fill="#F6851B" stroke="#F6851B" stroke-width="0.101334" stroke-linecap="round" stroke-linejoin="round"/>
</g>
<defs>
<clipPath id="clip0_513_12360">
<rect width="24" height="24" fill="white" transform="translate(0.5)"/>
</clipPath>
</defs>
</svg>
