<svg width="25" height="24" viewBox="0 0 25 24" fill="none" xmlns="http://www.w3.org/2000/svg">
<g clip-path="url(#clip0_513_11260)">
<path d="M12.5 24C19.1274 24 24.5 18.6274 24.5 12C24.5 5.37258 19.1274 0 12.5 0C5.87258 0 0.5 5.37258 0.5 12C0.5 18.6274 5.87258 24 12.5 24Z" fill="#FF8C00"/>
<path d="M12.4995 3.3772C8.93382 3.3772 6.01953 6.27434 6.01953 9.85719C6.01953 10.5772 6.13953 11.2801 6.36239 11.9658C6.51667 12.4286 7.03096 12.6858 7.51096 12.5315C7.97382 12.3772 8.23096 11.8629 8.07667 11.3829C7.8881 10.8515 7.80239 10.2858 7.81953 9.72005C7.8881 7.30291 9.84239 5.31434 12.2595 5.19434C14.951 5.0572 17.1795 7.20005 17.1795 9.85719C17.1795 12.3429 15.2252 14.3829 12.7738 14.5201C12.7738 14.5201 11.8652 14.5715 11.4195 14.64C11.1967 14.6743 11.0252 14.7086 10.9052 14.7258C10.8538 14.7429 10.8024 14.6915 10.8195 14.64L10.9738 13.8858L11.8138 10.0115C11.9167 9.53148 11.6081 9.05148 11.1281 8.94862C10.6481 8.84577 10.1681 9.15434 10.0652 9.63434C10.0652 9.63434 8.04239 19.0629 8.02525 19.1658C7.92239 19.6458 8.23096 20.1258 8.71096 20.2286C9.19096 20.3315 9.67096 20.0229 9.77382 19.5429C9.79096 19.4401 10.0652 18.1886 10.0652 18.1886C10.271 17.2286 11.0595 16.5258 11.9852 16.4058C12.191 16.3715 12.9967 16.3201 12.9967 16.3201C16.3395 16.0629 18.9795 13.2686 18.9795 9.85719C18.9795 6.27434 16.0652 3.3772 12.4995 3.3772ZM12.9624 18.2915C12.3795 18.1715 11.7967 18.5315 11.6767 19.1315C11.5567 19.7143 11.9167 20.2972 12.5167 20.4172C13.0995 20.5372 13.6824 20.1772 13.8024 19.5772C13.9224 18.9772 13.5624 18.4115 12.9624 18.2915Z" fill="white"/>
</g>
<defs>
<clipPath id="clip0_513_11260">
<rect width="24" height="24" fill="white" transform="translate(0.5)"/>
</clipPath>
</defs>
</svg>
