<svg width="32" height="32" viewBox="0 0 32 32" fill="none" xmlns="http://www.w3.org/2000/svg">
<ellipse cx="16.0108" cy="16.9697" rx="14.6553" ry="15.0303" fill="#418ACA"/>
<path d="M7.63361 10.434C4.81979 12.1717 4.9862 15.2695 5.42113 16.6013C9.2788 12.9707 14.9077 13.6146 17.2399 14.3904C16.6348 13.3353 15.248 12.4251 14.6303 12.1019C22.9205 11.9467 25.9763 17.9847 26.468 21.0231C27.3699 26.5965 23.883 29.6801 23.883 29.6801C27.6414 27.3674 29.522 23.8885 30.1555 21.0231C30.2614 16.6944 27.1866 13.4013 25.636 12.2958C27.2849 12.3113 29.0713 13.1297 29.7584 13.537C26.5512 9.28585 21.564 8.0162 19.4713 7.91276C22.3759 5.49239 22.9886 1.64204 22.9318 0.0194092C20.8744 3.71202 18.4564 5.57902 17.5046 6.05094C17.3987 4.91833 17.0319 4.41538 16.8617 4.30548C16.0599 6.0587 13.1994 7.29862 11.8694 7.69943C11.3589 7.85329 10.697 8.45579 10.8105 9.28973C10.9339 10.1969 11.6047 10.5503 12.0207 10.6085C11.2341 10.7482 10.8105 10.5503 10.697 10.434C9.08967 12.0049 8.37108 11.9467 7.82269 11.7916C7.38398 11.6674 7.51384 10.8348 7.63361 10.434Z" fill="white"/>
<path d="M7.52 12.4315C6.91487 12.4159 6.52406 13.3688 6.4043 13.8472C7.2666 12.9163 7.58305 13.2008 7.63348 13.4593C8.10247 12.7146 7.75324 12.4638 7.52 12.4315Z" fill="#418ACA"/>
<path d="M6.4423 28.4896C2.19132 25.0763 1.26721 19.4908 1.33654 17.1054C3.39773 22.2836 7.558 24.863 10.6782 24.7466C13.7983 24.6302 15.765 23.583 17.4291 21.4496C18.7603 19.743 17.7443 17.6807 17.0131 16.8533C19.3125 18.9788 18.7654 21.3915 18.2611 22.3418C18.7149 22.2176 19.3075 21.6371 19.547 21.3915C19.5622 22.0431 19.3642 22.6909 19.2633 22.9042C19.8382 22.6715 20.4547 21.941 20.7194 21.6048C21.1544 22.749 20.6879 24.8436 20.3602 25.3866C18.9041 28.4315 14.5547 30.6424 11.5102 30.4872C9.07459 30.3631 7.11676 29.1038 6.4423 28.4896Z" fill="#161F42"/>
<path d="M25.6546 12.2958C24.0662 10.9304 21.6898 10.3822 20.7002 10.2788C23.0299 10.2788 25.2512 11.1968 26.0707 11.6558L25.6546 10.7831C26.9405 11.3726 28.9072 12.8 29.7581 13.537C29.4745 13.3625 27.3376 12.3346 25.6546 12.2958Z" fill="#161F42"/>
<path d="M17.2783 15.6508C12.3314 13.4787 7.72871 15.1272 6.15918 15.9805C9.56299 13.2459 14.5678 13.6662 16.503 14.1769C17.093 14.7975 17.2153 15.4245 17.2783 15.6508Z" fill="#161F42"/>
<path d="M17.4107 7.64123C17.2746 8.54111 16.5724 9.38669 16.2383 9.69699C21.7903 7.88172 23.0396 2.47597 22.9703 0C22.4105 2.09455 21.136 3.8594 20.5687 4.48001L21.5709 4.2085C20.5573 6.11686 18.3751 7.29214 17.4107 7.64123Z" fill="#161F42"/>
<path d="M7.48218 12.7418C6.99808 12.7418 6.54927 13.5111 6.4043 13.8473C6.72199 12.6992 7.27416 12.3608 7.55782 12.4315C8.11756 12.5712 7.84777 13.175 7.63346 13.4594C7.79104 13.2202 7.96628 12.7418 7.48218 12.7418Z" fill="#161F42"/>
<path d="M13.0048 8.78551C12.1954 9.24204 12.3429 9.7746 12.3808 9.96854C14.892 10.0771 15.7846 8.28127 15.9169 7.36975C14.2529 8.57217 14.1394 8.14551 13.0048 8.78551Z" fill="#418ACA"/>
<path d="M9.88446 17.8619C9.09024 17.9136 7.23327 17.6097 6.15918 15.9807C7.83587 14.9463 12.3995 13.4206 17.2405 15.5928C17.2468 15.4441 17.093 14.9489 16.4273 14.1576L17.2405 14.371C17.0892 14.1318 16.6505 13.5525 16.1059 13.1491C17.2531 13.1297 20.3682 13.5913 22.5164 15.5928C25.2016 18.0946 28.4576 23.6122 24.2596 29.2946C22.7621 31.2222 13.4517 34.6573 6.39507 28.4651C6.35817 28.4336 6.32364 28.403 6.29155 28.3734C6.326 28.4042 6.36051 28.4348 6.39507 28.4651C7.34382 29.2763 9.85949 30.7114 12.8155 30.4874C16.6543 30.1965 23.9346 27.1128 21.5141 20.131C21.325 20.7645 20.5535 22.2643 19.2071 22.9625C19.6925 21.5273 19.9295 18.2265 16.7677 16.737C12.8155 14.8752 8.05019 15.7673 9.88446 17.8619Z" fill="#262F71"/>
<path d="M18.2044 22.4193C19.3239 19.9369 17.8892 17.6549 16.9941 16.8533C19.3844 18.0324 19.6416 20.4088 19.4903 21.4496C19.3541 21.7134 18.5448 22.2448 18.2044 22.4193Z" fill="#0E1F66"/>
<path d="M19.226 26.977C21.1171 25.0376 20.991 22.581 20.701 21.6436C21.0187 21.2247 21.407 20.396 21.552 20.0339C22.6677 23.1564 21.5079 25.6194 20.8523 26.4534C17.8872 30.0994 13.5909 30.7782 11.0947 30.4485C14.2716 30.4485 16.8623 29.4013 19.226 26.977Z" fill="#0E1F66"/>
<path d="M14.6491 8.14549C14.3163 9.38671 13.0039 9.89095 12.3799 9.96852C14.8193 10.1237 15.7648 8.30711 15.9161 7.35034C15.7648 7.55204 15.0084 7.96448 14.6491 8.14549Z" fill="#161F42"/>
<path d="M23.5181 16.8921C21.2338 13.8666 17.6119 13.1361 16.0865 13.149C15.7537 12.8387 15.0275 12.3216 14.7061 12.1018C17.0824 11.7979 22.4886 12.5846 25.428 17.9781C28.0189 22.7321 26.6417 26.6183 24.2591 29.2947C27.228 24.7565 26.3735 20.6739 23.5181 16.8921Z" fill="#161F42"/>
</svg>
