<svg width="28" height="27" viewBox="0 0 28 27" fill="none" xmlns="http://www.w3.org/2000/svg">
<g clip-path="url(#clip0_684_88328)">
<path d="M6.22226 2.88892L26.8889 17L21.7778 24.5556L1.11115 10.3334L6.22226 2.88892Z" fill="url(#paint0_linear_684_88328)"/>
<path d="M26.8889 17C25.1111 19.5556 19.1111 18.5556 13.4445 14.5556C7.66669 10.6667 4.55558 5.44447 6.22224 2.88892C8.00002 0.33336 14 1.33336 19.6667 5.33336C25.4445 9.11114 28.5556 14.4445 26.8889 17Z" fill="url(#paint1_linear_684_88328)"/>
<path d="M21.7778 24.4444C20 26.9999 14 25.9999 8.33335 21.9999C2.66668 17.9999 -0.55554 12.8888 1.22224 10.2222C3.00002 7.66661 9.00002 8.66661 14.6667 12.6666C20.3334 16.6666 23.4445 21.8888 21.7778 24.4444Z" fill="url(#paint2_linear_684_88328)"/>
<path d="M26.889 17.0001L21.7778 24.5557C20.0001 27.1112 14.0001 26.0001 8.3334 22.1112C7.22229 21.3335 6.22229 20.5557 5.22229 19.6668C6.00007 19.5557 7.00007 19.1112 8.00007 18.0001C9.77785 16.1112 10.6667 15.6668 11.4445 15.7779C12.2223 15.7779 13.1112 16.5557 14.5556 18.4446C16.0001 20.3335 18.0001 20.889 19.2223 19.889C19.3334 19.7779 19.4445 19.7779 19.5556 19.6668C20.5556 18.889 20.889 18.5557 22.7778 15.0001C23.2223 14.1112 24.7778 12.6668 26.889 13.3335C27.4445 14.7779 27.4445 16.0001 26.889 17.0001Z" fill="#0E0F23"/>
<path fill-rule="evenodd" clip-rule="evenodd" d="M26.1111 16.5556C24.5555 18.7778 19.1111 17.6667 13.8888 14C8.55551 10.3334 5.4444 5.6667 6.99996 3.44448C8.55551 1.22225 14 2.33337 19.2222 6.00003C24.4444 9.6667 27.5555 14.3334 26.1111 16.5556ZM21.2222 13.2223C20.4444 14.3334 17.7777 13.7778 15.1111 12C12.5555 10.2223 11 7.88892 11.7777 6.77781C12.5555 5.6667 15.2222 6.22225 17.8888 8.00003C20.4444 9.77781 22 12.1111 21.2222 13.2223Z" fill="white"/>
<path d="M5.77776 5.44449C5.77776 5.33338 5.66665 5.22227 5.55554 5.33338C5.44442 5.44449 5.33331 5.44449 5.33331 5.5556C5.44442 5.88893 5.55554 6.11116 5.55554 6.33338C5.55554 6.44449 5.66665 6.5556 5.77776 6.44449C5.88887 6.44449 5.99998 6.33338 5.88887 6.22227C5.88887 6.00004 5.88887 5.77782 5.77776 5.44449Z" fill="white"/>
<path d="M6.33333 7.22208C6.33333 7.11097 6.22222 6.99985 6.11111 7.11097C6 7.22208 6 7.22208 6 7.33319C7.22222 10.111 9.77778 13.111 13.1111 15.3332C13.2222 15.4443 13.3333 15.3332 13.4444 15.3332C13.5556 15.2221 13.4444 15.111 13.4444 14.9999C10 12.7776 7.55556 9.88874 6.33333 7.22208Z" fill="white"/>
<path d="M19.7778 18.1111C19.6667 18.1111 19.5556 18.1111 19.5556 18.2222C19.5556 18.3333 19.5556 18.4444 19.6667 18.4444C20 18.5555 20.4445 18.6666 20.7778 18.7778C20.8889 18.7778 21 18.7777 21 18.6666C21 18.5555 21 18.4444 20.8889 18.4444C20.5556 18.3333 20.1112 18.2222 19.7778 18.1111Z" fill="white"/>
<path d="M21.7778 18.5557C21.6667 18.5557 21.5555 18.6668 21.5555 18.7779C21.5555 18.889 21.6667 19.0001 21.7778 19.0001C22.6667 19.1112 23.6667 19.2223 24.4444 19.1112C24.5555 19.1112 24.6667 19.0001 24.6667 18.889C24.6667 18.7779 24.5555 18.6668 24.4444 18.6668C23.5555 18.7779 22.6667 18.6668 21.7778 18.5557Z" fill="white"/>
</g>
<defs>
<linearGradient id="paint0_linear_684_88328" x1="10.2714" y1="0.882583" x2="14.3698" y2="14.9561" gradientUnits="userSpaceOnUse">
<stop stop-color="#03B8FF"/>
<stop offset="1" stop-color="#FA52A0"/>
</linearGradient>
<linearGradient id="paint1_linear_684_88328" x1="13.6465" y1="-0.100418" x2="17.745" y2="13.9732" gradientUnits="userSpaceOnUse">
<stop stop-color="#03B8FF"/>
<stop offset="1" stop-color="#FA52A0"/>
</linearGradient>
<linearGradient id="paint2_linear_684_88328" x1="6.90668" y1="1.86228" x2="11.0052" y2="15.9359" gradientUnits="userSpaceOnUse">
<stop stop-color="#03B8FF"/>
<stop offset="1" stop-color="#FA52A0"/>
</linearGradient>
<clipPath id="clip0_684_88328">
<rect width="26.6667" height="26.6667" fill="white" transform="translate(0.666687 0.333252)"/>
</clipPath>
</defs>
</svg>
