<svg width="32" height="32" viewBox="0 0 32 32" fill="none" xmlns="http://www.w3.org/2000/svg">
<circle cx="16" cy="16" r="16" fill="url(#paint0_linear_602_2569)"/>
<path d="M14.1487 9.77637C13.9212 9.74388 13.9104 9.73305 14.0187 9.72222C14.2245 9.68973 14.701 9.73305 15.0368 9.80886C15.8165 9.99298 16.5205 10.4695 17.2678 11.3034L17.4628 11.5309L17.7443 11.4876C18.9465 11.2926 20.1812 11.4442 21.21 11.9208C21.4916 12.0507 21.9357 12.3107 21.9898 12.3756C22.0115 12.3973 22.044 12.5381 22.0656 12.6789C22.1414 13.1879 22.1089 13.567 21.9465 13.8594C21.8598 14.0218 21.8598 14.0652 21.914 14.206C21.9573 14.3143 22.0873 14.3901 22.2064 14.3901C22.4663 14.3901 22.7371 13.9785 22.8671 13.4045L22.9212 13.1771L23.0187 13.2854C23.571 13.9027 24.0042 14.7583 24.0692 15.3648L24.0909 15.5273L23.9934 15.3865C23.831 15.1374 23.6793 14.9749 23.4736 14.8341C23.1053 14.585 22.7154 14.5092 21.6866 14.4551C20.7552 14.4009 20.2245 14.3251 19.7046 14.1518C18.8165 13.8594 18.3617 13.4803 17.3111 12.0832C16.8454 11.4659 16.553 11.1302 16.2606 10.8486C15.6216 10.2312 14.9826 9.90633 14.1487 9.77637Z" fill="#FF007A"/>
<path d="M22.2166 11.1515C22.2383 10.74 22.2924 10.4692 22.4116 10.2201C22.4549 10.1227 22.4982 10.036 22.509 10.036C22.5199 10.036 22.4982 10.1118 22.4657 10.1985C22.3791 10.4367 22.3683 10.7725 22.4224 11.1515C22.4982 11.6389 22.5307 11.7039 23.0506 12.2346C23.2888 12.4837 23.5704 12.7977 23.6787 12.9277L23.8628 13.166L23.6787 12.9927C23.4513 12.7761 22.9314 12.3645 22.8123 12.3104C22.7365 12.267 22.7257 12.267 22.6715 12.3212C22.6282 12.3645 22.6173 12.4295 22.6173 12.7436C22.6065 13.2309 22.5415 13.5342 22.3791 13.8483C22.2924 14.0107 22.2816 13.9782 22.3574 13.7941C22.4116 13.6533 22.4224 13.5883 22.4224 13.1226C22.4224 12.1804 22.3141 11.953 21.6535 11.5739C21.491 11.4764 21.2094 11.3356 21.047 11.2598C20.8737 11.184 20.7437 11.119 20.7545 11.119C20.7762 11.0974 21.4152 11.2815 21.6643 11.3898C22.0433 11.5414 22.1083 11.5523 22.1516 11.5414C22.1841 11.5089 22.2058 11.4223 22.2166 11.1515Z" fill="#FF007A"/>
<path d="M14.5927 12.7653C14.1378 12.1371 13.8454 11.1624 13.9104 10.4368L13.932 10.2094L14.0403 10.231C14.2353 10.2635 14.571 10.3935 14.7335 10.4909C15.1667 10.7509 15.3616 11.1083 15.5458 11.9963C15.5999 12.2563 15.6757 12.5595 15.7082 12.657C15.7624 12.8194 15.9681 13.1985 16.1414 13.4368C16.2606 13.6101 16.1847 13.6967 15.914 13.675C15.5024 13.6317 14.9501 13.2527 14.5927 12.7653Z" fill="#FF007A"/>
<path d="M21.6642 17.4764C19.5198 16.6099 18.7617 15.8626 18.7617 14.5955C18.7617 14.4114 18.7725 14.2598 18.7725 14.2598C18.7834 14.2598 18.8592 14.3247 18.9567 14.4006C19.3899 14.7471 19.8772 14.8988 21.231 15.0937C22.0216 15.2128 22.4765 15.2995 22.8881 15.4403C24.1985 15.8735 25.0108 16.7616 25.2057 17.9637C25.2599 18.3103 25.2274 18.9709 25.1408 19.3175C25.0649 19.5883 24.8483 20.0865 24.7942 20.0973C24.7834 20.0973 24.7617 20.0431 24.7617 19.9565C24.74 19.5016 24.5126 19.0684 24.1335 18.7327C23.6787 18.3428 23.0938 18.0504 21.6642 17.4764Z" fill="#FF007A"/>
<path d="M20.1478 17.834C20.1261 17.6715 20.072 17.4658 20.0395 17.3791L19.9854 17.2167L20.0828 17.3358C20.2236 17.4983 20.3319 17.6932 20.4294 17.964C20.5052 18.1697 20.5052 18.2347 20.5052 18.5705C20.5052 18.8954 20.4944 18.9712 20.4294 19.1553C20.3211 19.4477 20.1911 19.6535 19.9745 19.8809C19.5846 20.2816 19.0756 20.4983 18.35 20.5957C18.22 20.6066 17.8518 20.639 17.5269 20.6607C16.7146 20.704 16.1731 20.7907 15.6857 20.964C15.6208 20.9856 15.5558 21.0073 15.5449 20.9964C15.5233 20.9748 15.859 20.7798 16.1298 20.6499C16.5088 20.4658 16.8987 20.3683 17.7543 20.2167C18.1767 20.1517 18.6099 20.065 18.7182 20.0217C19.7904 19.686 20.3211 18.852 20.1478 17.834Z" fill="#FF007A"/>
<path d="M21.1349 19.5775C20.8533 18.9602 20.7883 18.3754 20.94 17.823C20.9616 17.7689 20.9833 17.7147 21.0049 17.7147C21.0266 17.7147 21.0916 17.7472 21.1566 17.7905C21.2865 17.8772 21.5573 18.0288 22.2504 18.4079C23.1277 18.8844 23.6259 19.2526 23.9724 19.675C24.2757 20.0432 24.4598 20.4656 24.5464 20.9855C24.6006 21.2779 24.5681 21.9819 24.4923 22.2743C24.254 23.1948 23.7125 23.9313 22.9219 24.3537C22.8028 24.4187 22.7053 24.462 22.6945 24.462C22.6836 24.462 22.7269 24.3537 22.7919 24.2237C23.0519 23.6714 23.0843 23.1407 22.8894 22.545C22.7703 22.1768 22.5212 21.7328 22.023 20.9855C21.4273 20.119 21.2865 19.8916 21.1349 19.5775Z" fill="#FF007A"/>
<path d="M13.0653 22.8917C13.8668 22.2202 14.8523 21.7437 15.7621 21.5921C16.152 21.5271 16.8018 21.5488 17.1592 21.6462C17.7332 21.7979 18.253 22.1228 18.5238 22.5235C18.7837 22.9134 18.9028 23.2491 19.022 23.9964C19.0653 24.2888 19.1195 24.5921 19.1303 24.657C19.2169 25.0469 19.3902 25.3502 19.6068 25.5126C19.9426 25.7617 20.5274 25.7726 21.1014 25.556C21.1989 25.5235 21.2855 25.491 21.2855 25.5018C21.3072 25.5235 21.0148 25.7184 20.8198 25.8159C20.5491 25.9567 20.3324 26 20.04 26C19.5202 26 19.0761 25.7292 18.7187 25.1877C18.6429 25.0794 18.4913 24.7653 18.3613 24.4729C17.9823 23.5957 17.7873 23.3358 17.3433 23.0433C16.9534 22.7942 16.4552 22.7401 16.0761 22.9242C15.578 23.1625 15.448 23.8015 15.7946 24.1913C15.9354 24.3538 16.1953 24.4838 16.4119 24.5163C16.8126 24.5704 17.1592 24.2563 17.1592 23.8556C17.1592 23.5957 17.0617 23.4441 16.8018 23.3249C16.4552 23.1733 16.0761 23.3466 16.087 23.6823C16.087 23.8231 16.152 23.9098 16.2928 23.9747C16.3794 24.0181 16.3794 24.0181 16.3144 24.0072C16.0003 23.9422 15.9245 23.5524 16.1736 23.3033C16.4769 23 17.1159 23.13 17.3325 23.5524C17.4191 23.7256 17.4299 24.0722 17.3541 24.2888C17.17 24.7653 16.6501 25.0144 16.1195 24.8737C15.7621 24.7762 15.6104 24.6787 15.1772 24.2347C14.4191 23.4549 14.1267 23.3033 13.0437 23.1408L12.8379 23.1083L13.0653 22.8917Z" fill="#FF007A"/>
<path fill-rule="evenodd" clip-rule="evenodd" d="M7.36871 5.4657C9.89217 8.53067 13.7802 13.296 13.9752 13.5559C14.1376 13.7725 14.0727 13.9783 13.8019 14.1299C13.6503 14.2166 13.3362 14.3032 13.1846 14.3032C13.0113 14.3032 12.8055 14.2166 12.6647 14.0758C12.5672 13.9783 12.1449 13.361 11.1918 11.8772C10.4662 10.74 9.84885 9.79782 9.83802 9.78698C9.79469 9.76532 9.79469 9.76532 11.116 12.1263C11.9499 13.6101 12.2207 14.1408 12.2207 14.2057C12.2207 14.3465 12.1774 14.4223 12.0041 14.6173C11.7117 14.9422 11.5817 15.3104 11.4842 16.0794C11.3759 16.935 11.0835 17.5415 10.2496 18.5703C9.7622 19.1768 9.68639 19.2851 9.56726 19.5342C9.41563 19.8375 9.37231 20.0108 9.35065 20.4007C9.32899 20.8122 9.37231 21.0721 9.49145 21.462C9.59975 21.8086 9.71888 22.036 10.0113 22.4801C10.2604 22.87 10.412 23.1624 10.412 23.2707C10.412 23.3573 10.4337 23.3573 10.8236 23.2707C11.755 23.0541 12.5239 22.6859 12.9463 22.231C13.2062 21.9494 13.2712 21.7978 13.2712 21.4079C13.2712 21.1588 13.2604 21.1046 13.1954 20.953C13.0871 20.7147 12.8813 20.5198 12.4373 20.2165C11.8524 19.8158 11.6034 19.4909 11.5384 19.0577C11.4842 18.6895 11.5492 18.4404 11.8741 17.7581C12.2098 17.0541 12.2965 16.7617 12.3506 16.0469C12.3831 15.592 12.4373 15.4079 12.5672 15.2671C12.708 15.1155 12.8272 15.0613 13.1629 15.018C13.7153 14.9422 14.0727 14.8014 14.3542 14.5306C14.6033 14.3032 14.7116 14.0758 14.7225 13.74L14.7333 13.4909L14.5925 13.3393C14.0835 12.7545 7.03297 5 7.00048 5C6.98965 5 7.16294 5.20578 7.36871 5.4657ZM10.6936 20.8664C10.8127 20.6606 10.7478 20.4007 10.5528 20.2707C10.3687 20.1516 10.0871 20.2057 10.0871 20.3682C10.0871 20.4115 10.1088 20.4548 10.1738 20.4765C10.2712 20.5306 10.2821 20.5848 10.2062 20.7039C10.1304 20.823 10.1304 20.9313 10.2279 21.0072C10.3795 21.1263 10.5853 21.0613 10.6936 20.8664Z" fill="#FF007A"/>
<path fill-rule="evenodd" clip-rule="evenodd" d="M15.0805 15.1695C14.8206 15.2454 14.5715 15.5269 14.4957 15.8085C14.4524 15.9818 14.4741 16.2959 14.5499 16.3934C14.669 16.545 14.7773 16.5883 15.0805 16.5883C15.6762 16.5883 16.1852 16.3284 16.2394 16.0143C16.2935 15.7544 16.0661 15.397 15.752 15.2345C15.5896 15.1479 15.2538 15.1154 15.0805 15.1695ZM15.7737 15.7111C15.8603 15.5811 15.8278 15.4403 15.6654 15.3428C15.373 15.1587 14.9289 15.3103 14.9289 15.5919C14.9289 15.7327 15.1564 15.8843 15.373 15.8843C15.5138 15.8843 15.7087 15.7977 15.7737 15.7111Z" fill="#FF007A"/>
<defs>
<linearGradient id="paint0_linear_602_2569" x1="29.5" y1="24" x2="4" y2="3.5" gradientUnits="userSpaceOnUse">
<stop stop-color="#FFCAE2"/>
<stop offset="1" stop-color="#FDE9F2"/>
</linearGradient>
</defs>
</svg>
