<svg width="126" height="36" viewBox="0 0 126 36" fill="none" xmlns="http://www.w3.org/2000/svg">
<path d="M1.23775 18.8914C1.53679 17.471 2.91982 16.088 4.30285 16.387C4.26547 16.7982 4.11595 17.0972 4.04119 17.2468C3.77954 17.7327 4.11595 17.8822 4.48974 17.7327C4.82616 17.6206 5.61112 17.3589 5.61112 16.7235C5.57374 16.3497 5.23733 15.9011 4.7514 15.6395C4.26547 15.3778 3.77954 15.303 3.36837 15.303C2.54603 15.303 1.8732 15.6395 1.34989 16.0506C0.49017 16.7608 0.0416194 17.7701 0.00424027 18.8167C-0.107897 21.2463 2.02272 22.7041 4.19071 22.7041C8.75097 22.4425 11.218 19.4895 11.8161 18.3681C12.0777 17.8822 11.8161 17.2468 11.5918 17.3963C9.34904 19.3774 6.65774 21.3585 3.55526 21.5827C1.8732 21.5827 0.901341 20.4988 1.23775 18.8914Z" fill="white"/>
<path d="M21.949 17.7701C22.8461 17.471 23.1078 16.9851 22.0238 17.0225C21.6874 17.0225 20.2296 17.172 18.4728 17.172C17.6131 17.172 16.6412 17.1346 15.7067 17.0225C15.146 16.3497 14.3237 15.8637 13.3144 15.7142C12.5669 15.6768 12.3052 16.088 12.1557 16.6113C12.0809 16.6113 12.0436 16.6487 11.9688 16.6487C11.1091 16.9477 10.1372 18.7419 10.3989 20.3119C10.5858 21.3585 11.5202 22.5172 12.9033 22.592C14.6227 22.7041 16.1553 21.7696 16.4917 19.9007C16.6038 19.34 16.5664 18.7793 16.4169 18.2934C18.697 18.4055 21.1267 18.0691 21.949 17.7701ZM12.7164 17.471L12.7911 17.3963C13.3144 17.7327 14.0246 17.957 14.8844 18.1065C15.4824 19.4521 14.6601 21.5828 13.0154 21.6575C12.3052 21.6949 11.894 21.2837 11.7071 20.1997C11.5202 19.1531 12.2304 17.8448 12.7164 17.471Z" fill="white"/>
<path d="M22.5468 20.7978C22.659 21.2463 23.6308 21.9939 23.9298 21.7323C25.3876 20.4614 26.4342 18.4803 28.3406 17.2468C28.677 18.7045 28.9013 19.5643 29.2751 20.3866C29.4993 20.7978 30.2095 21.1716 30.5086 21.0221C31.5178 20.3492 32.4523 19.6017 34.1344 18.2186C34.2465 18.555 34.4334 18.9662 34.6951 19.34C35.0315 19.7885 35.4053 20.2371 35.9659 20.6109C36.7883 21.1342 37.6854 21.3585 38.4703 21.3585C40.601 21.3585 43.0306 19.5269 43.5913 18.5177C44.0399 17.6953 43.5539 17.3963 43.4418 17.5832C42.9185 18.4803 38.8441 20.3119 37.648 20.3119C37.1247 20.3119 36.6762 20.125 36.265 19.8633C35.5174 19.2279 35.3305 17.8822 34.9567 17.1346C34.695 16.7235 33.9848 16.3497 33.7232 16.5366L30.0974 19.4895C29.761 18.1812 29.7236 17.3963 29.3124 16.4244C29.0134 16.0132 28.378 15.6395 28.0789 15.789C26.4716 16.5739 25.2007 18.0691 23.8925 19.4895C23.8551 18.256 24.0046 17.5832 23.9672 16.6113C24.0794 16.1254 22.8458 15.303 22.7337 15.9385C22.5842 16.873 22.4721 17.957 22.4721 19.1531C22.4721 19.6764 22.5094 20.2371 22.5468 20.7978Z" fill="white"/>
<path d="M42.2567 35.2262C42.3315 35.9364 43.565 36.3102 43.6024 35.6747C43.3407 33.8057 43.3407 31.6751 43.266 29.4324C43.3781 25.5449 43.4529 23.0405 43.8641 21.3211L44.1631 21.508C44.8359 21.9192 46.3685 22.2929 47.602 21.9565H47.7889C50.6297 22.0687 53.5079 20.5735 55.4142 18.6298C55.788 18.2186 56.2366 16.9103 55.788 17.2468C54.4797 18.4055 51.3773 20.2371 49.0224 20.723C49.5457 20.0876 50.069 19.1905 50.1438 18.3308C50.4054 16.2375 48.0505 15.4526 46.5554 15.8637C45.4714 16.1628 44.3126 16.9477 43.3407 18.4429C43.4529 15.9011 43.5276 14.1443 43.6024 13.2098C43.6398 12.9482 43.3781 12.6117 43.0043 12.4248C42.6679 12.2379 42.3315 12.2379 42.2941 12.4996C41.9951 14.5928 41.9203 20.9847 41.9203 29.4698C42.0325 31.4882 42.1072 33.6562 42.2567 35.2262ZM46.7422 20.8352C46.1442 20.7604 44.35 20.6856 43.9388 20.4614V20.3492C44.1631 19.3026 46.817 15.9759 48.4991 16.9477C49.6952 17.6579 48.0505 20.4614 46.7422 20.8352Z" fill="white"/>
<path d="M65.5703 17.7701C66.4674 17.471 66.729 16.9851 65.645 17.0225C65.3086 17.0225 63.8508 17.172 62.094 17.172C61.2343 17.172 60.2624 17.1346 59.3279 17.0225C58.7673 16.3497 57.9449 15.8637 56.9357 15.7142C56.1881 15.6768 55.9264 16.088 55.7769 16.6113C55.7022 16.6113 55.6648 16.6487 55.59 16.6487C54.7303 16.9477 53.7584 18.7419 54.0201 20.3119C54.207 21.3585 55.1415 22.5172 56.5245 22.592C58.2439 22.7041 59.7765 21.7696 60.1129 19.9007C60.225 19.34 60.1877 18.7793 60.0381 18.2934C62.3183 18.4055 64.7479 18.0691 65.5703 17.7701ZM56.3376 17.471L56.4124 17.3963C56.9357 17.7327 57.6459 17.957 58.5056 18.1065C59.1037 19.4521 58.2813 21.5828 56.6366 21.6575C55.9264 21.6949 55.5153 21.2837 55.3284 20.1997C55.1415 19.1531 55.8517 17.8448 56.3376 17.471Z" fill="white"/>
<path d="M65.6438 22.3677C66.2045 22.592 67.1016 22.7041 68.0361 22.7041C69.008 22.7041 69.9798 22.592 70.6527 22.4051C71.6245 22.1434 72.3347 21.0968 71.5124 20.3866C70.7648 19.7885 69.6434 19.2279 68.223 18.4429C67.4754 17.9943 66.6157 17.6206 66.84 17.0972C67.2512 16.1254 70.6527 15.4899 72.0357 15.004C72.3347 14.6302 71.5871 13.92 70.9891 13.9948C69.0827 14.2564 65.0084 15.4526 65.3074 17.4337C65.4569 18.555 66.5036 18.9288 67.4754 19.4895C68.223 19.9007 69.6434 20.6109 70.5779 21.0968C69.606 21.3211 68.1109 21.508 66.9147 21.508C66.4288 21.508 66.0176 21.4706 65.6812 21.3959C64.8589 21.209 65.1953 22.1434 65.6438 22.3677Z" fill="white"/>
<path d="M75.4997 21.6201C75.9109 21.8818 76.3594 21.9939 76.8453 21.9939C78.8264 21.9939 81.2935 20.0876 82.3401 19.1531C82.826 20.4987 83.7605 21.209 84.994 21.508C86.5639 21.8818 89.1431 20.6856 90.0776 19.7512C92.1334 17.6953 91.5727 16.7608 90.9373 17.3963C89.5916 18.8914 86.377 20.7978 84.4707 20.424C83.7979 20.2371 83.611 19.4895 83.6484 18.8541C83.7231 18.1439 84.0595 17.471 84.2464 16.9103C84.5081 16.4618 83.2372 15.6395 83.0129 16.0506L82.3775 16.9103H82.3401C81.4056 16.4992 80.359 16.2749 79.3124 16.2749C78.0041 16.2749 76.7332 16.6113 75.724 17.2841C74.7895 17.9196 74.3783 18.7419 74.3783 19.5643C74.3783 20.3492 74.7521 21.0594 75.4997 21.6201ZM76.1725 20.7978C75.6118 20.7604 75.3876 20.3492 75.4997 19.9007C75.9109 18.1812 78.3779 17.471 80.2468 17.471C80.8075 17.471 81.3308 17.5458 81.7046 17.6579C80.3964 19.041 77.9667 20.5735 76.1725 20.7978Z" fill="white"/>
<path d="M91.6247 23.3022C91.9985 23.4891 92.1854 23.3769 92.2228 23.3769C92.2975 23.3396 92.3349 23.2648 92.3723 23.2648C92.4097 23.1527 92.4844 22.9658 92.4471 22.7041L92.6713 21.6575L92.7835 21.2837L92.8582 21.3211C93.6806 21.8818 95.8486 21.9939 96.4466 21.8818L96.5962 21.8444H96.8952C100.185 21.807 102.838 20.3866 104.222 18.5177C104.558 18.0317 104.782 16.873 104.408 17.2468C103.1 18.4055 100.11 20.0876 98.2782 20.3866L98.5399 19.7885C98.6894 19.34 98.8015 18.8167 98.8015 18.256C98.8015 17.3963 98.5399 16.4992 97.7549 15.789L97.568 15.6395C97.269 15.3404 96.8204 15.1535 96.484 15.1161C94.8393 14.8171 92.4471 17.9196 91.8116 19.4521C91.6247 17.5458 91.5873 15.1535 91.5873 12.7239C91.5873 7.8272 91.7369 2.89315 92.1854 1.58488C92.2975 1.3606 92.0733 0.986812 91.7742 0.762537C91.4004 0.53826 91.0267 0.53826 90.9145 0.725156C90.4286 2.07081 90.2417 6.48155 90.2417 10.9297V12.1258C90.2417 14.5555 90.3165 16.9477 90.3912 18.8541L90.6902 21.2463C90.8024 21.8444 90.8771 22.3303 91.0267 22.592C91.0267 22.6294 91.0267 22.7041 91.1388 22.8163C91.1388 22.8536 91.3631 23.1153 91.6247 23.3022ZM93.0825 20.5361L93.0077 20.4988C94.6524 18.1065 95.6243 16.6113 96.8952 16.2001H96.9699L97.0821 16.3497C97.3064 16.5739 97.4185 16.9477 97.4185 17.471C97.4185 19.2279 95.9233 20.7604 94.2039 20.7604C93.8301 20.7604 93.4563 20.6856 93.0825 20.5361Z" fill="white"/>
<path d="M107.78 24.6105C110.134 24.6105 113.125 20.5735 113.798 18.7046C113.947 18.256 113.872 17.3215 113.499 17.8448C112.938 18.555 108.415 24.6478 106.471 23.4517C105.649 22.891 105.35 20.2371 105.35 16.9103C105.35 10.4437 106.434 1.47274 106.658 0.762537C106.658 0.575639 106.359 0.276606 105.985 0.0897107C105.612 -0.0598064 105.387 -0.0224282 105.35 0.201846C104.864 1.77177 103.817 9.8083 103.817 16.0132C103.817 19.1157 104.079 21.7696 104.789 22.891C105.537 23.9376 106.583 24.6105 107.78 24.6105Z" fill="white"/>
<path d="M119.092 22.7415C121.671 22.592 124.064 20.7604 125.11 18.5924C125.634 17.5458 125.783 16.6861 124.923 17.5832C123.354 19.2279 120.737 21.8444 117.223 21.8444C115.915 21.8444 114.607 20.6483 114.495 19.9381C115.803 19.9381 117.41 19.041 117.896 17.8448C118.307 16.7608 117.223 15.6395 116.065 15.6395C114.233 15.7142 113.112 17.3963 113.112 19.041C113.112 19.4148 113.186 19.7885 113.299 20.125C114.046 22.4425 116.887 22.8536 119.092 22.7415ZM116.663 16.9103C117.074 17.3215 116.027 18.3308 114.457 19.041C114.42 18.1065 115.878 16.1254 116.663 16.9103Z" fill="white"/>
</svg>
