<svg width="135" height="54" viewBox="0 0 135 54" fill="none" xmlns="http://www.w3.org/2000/svg">
<path d="M8.43702 12.2656C9.00979 12.5102 9.33709 12.6732 9.50074 12.8362C9.66439 12.8362 9.82803 12.8362 10.0735 12.8362L9.99169 12.7547C9.41892 12.4286 8.92797 12.1026 8.3552 11.695C8.10973 11.6135 7.86425 11.4504 7.61877 11.4504C7.94607 11.695 8.19155 12.0211 8.43702 12.2656Z" fill="url(#paint0_linear_12678_15148)"/>
<g filter="url(#filter0_i_12678_15148)">
<path d="M43.094 42.4484C41.8245 41.4546 40.4643 40.5512 39.1947 39.7381C37.0184 37.57 34.7513 35.6728 32.3029 34.2273C30.1266 33.0529 27.3154 30.0717 24.6857 29.3489C24.867 29.5296 24.9577 29.7103 25.1391 29.891C24.7763 29.7103 24.5043 29.62 24.1416 29.5296C21.1491 27.0001 18.3379 24.4705 15.5268 21.6699C15.0734 21.2182 14.62 21.1279 14.1666 20.6762C13.7132 20.2245 13.3505 19.8631 12.8971 19.5018C12.8971 19.5018 12.8971 19.5018 12.8971 19.5921C11.0834 17.966 9.26978 16.4302 7.27479 14.804C6.36797 14.0813 5.64252 13.1779 4.7357 12.2745C4.46366 12.0035 4.64502 11.7324 4.55434 11.4614C4.01025 10.287 3.64752 9.47391 2.83138 8.38981C2.83138 8.38981 2.92207 8.29948 3.01275 8.20914C2.83139 8.11879 2.74071 7.9381 2.65002 7.84776C3.82889 7.57674 5.18911 8.48015 4.46366 6.76367C4.55434 6.85401 4.64502 6.85402 4.7357 6.85402C5.09843 7.0347 5.46115 7.12504 5.82388 7.0347C5.64252 6.85402 5.46116 6.67333 5.27979 6.49265C5.37047 6.40231 5.55183 6.40231 5.55183 6.31197H5.64252C5.7332 6.40231 5.82388 6.49265 5.82388 6.49265C5.91456 6.49265 6.00524 6.40231 6.00524 6.40231C6.7307 6.583 7.63751 7.21538 7.72819 6.85402C7.72819 6.583 7.27479 6.40231 6.82138 6.04094C6.82138 5.9506 6.82138 5.9506 6.82138 5.86026C7.36547 6.31197 7.27479 5.40856 7.63751 5.67958C8.09092 6.13129 8.54433 6.40231 8.90706 6.85402C10.63 8.5705 12.0809 9.92561 13.9852 11.3711C14.0759 11.4614 14.1666 11.4614 14.2573 11.5518C15.1641 12.2745 15.8895 12.9972 16.615 13.9006C16.5243 13.9006 16.4336 13.9006 16.3429 13.9006C16.9777 14.533 17.5218 15.2557 18.2473 15.7978C20.0609 17.0625 21.8745 18.4177 23.5975 20.0438C25.4111 21.7603 27.2247 23.2961 29.2197 24.8319C28.3129 24.2898 27.4968 23.6574 26.6807 22.9347C26.3179 22.5733 26.0459 22.3023 25.6832 21.941C25.9552 22.3023 26.3179 22.5733 26.6807 22.9347C27.9502 24.1995 29.2197 25.6449 30.7613 26.0063C30.852 26.187 30.7613 26.187 30.852 26.3677C31.5775 27.0904 32.2122 27.9035 33.1191 28.2648C33.2097 28.1745 33.4818 28.5358 33.4818 28.2648C34.2072 28.8069 34.9327 29.5296 35.6581 30.0716C35.9302 30.3427 36.3836 30.433 36.7463 30.6137C39.2854 32.5109 41.8245 34.408 44.5449 36.4859C45.1797 37.0279 45.9052 37.7506 46.5399 38.2927C45.4518 37.57 44.3636 36.8472 43.2754 36.1245C42.4593 35.2211 41.5524 34.3177 40.555 33.9563C40.3736 33.866 40.1015 33.7757 39.9202 33.595C41.099 34.4984 42.1872 35.3114 43.3661 36.1245C43.9102 36.6666 44.3636 37.2989 44.9077 37.841C44.3636 37.4796 43.9102 37.1183 43.3661 36.7569C42.6406 35.9438 41.8245 35.1308 40.9177 34.679C40.827 34.5887 40.7363 34.5887 40.555 34.4984C40.3736 34.408 40.1015 34.3177 39.9202 34.137C40.6456 34.679 41.3711 35.2211 42.0059 35.6728C42.4593 36.0342 42.9127 36.3052 43.2754 36.6666C43.4568 36.9376 43.7288 37.2086 43.9102 37.3893H43.8195C43.5474 37.2086 42.1872 37.3893 42.3686 37.9313C44.0009 39.4671 46.5399 41.4546 46.4493 41.545C46.2679 41.9063 43.1847 39.4671 43.2754 39.6478C43.3661 39.8285 43.5474 40.0092 43.6381 40.1898C43.4568 40.0995 43.2754 40.0092 43.094 39.9188C42.7313 39.6478 42.3686 39.1961 42.0059 39.1057C40.9177 38.7444 40.1922 37.841 39.104 37.2086C38.3786 36.8472 37.5625 36.4859 36.6556 36.1245C36.565 36.2148 36.2929 35.8535 36.2929 36.1245C35.7488 35.5825 35.0234 34.8597 34.3886 34.9501C34.3886 34.9501 34.3886 34.9501 34.2979 34.9501C34.2979 34.9501 34.2072 34.8597 34.1166 34.8597C33.2097 33.866 32.2122 33.5046 31.0334 32.8722C30.6707 32.6012 30.3986 32.3302 30.0359 31.9688C30.2172 32.1495 30.4893 32.5109 30.7613 32.6916C30.852 32.7819 30.9427 32.7819 31.0334 32.8722C31.9402 33.595 32.847 34.137 33.7538 34.7694C33.8445 34.7694 34.0259 34.8597 34.1166 34.8597C34.2072 34.9501 34.2072 34.9501 34.2979 35.0404H34.3886C35.2954 35.5824 36.2022 36.3052 36.9277 36.7569C38.2879 37.6603 39.3761 39.0154 40.555 40.1898C39.8295 39.7381 39.1947 39.2864 38.4693 38.8347C39.2854 39.4671 40.1015 40.0092 40.827 40.5512C40.9177 40.6416 41.0084 40.7319 41.099 40.8223L41.7338 41.4546C41.5524 41.2739 41.3711 41.0029 41.1897 40.8223C41.6431 41.0933 42.0965 41.4546 42.5499 41.7257C44.9077 43.5325 47.2654 45.52 49.2604 47.6881C49.1697 47.6881 48.9883 47.7785 48.8977 47.7785C47.8095 46.7847 46.812 45.791 45.6331 45.249C46.1772 45.791 46.7213 46.1524 47.3561 46.6944C47.3561 46.6944 47.2654 46.7847 47.1747 46.7847C47.6281 47.0558 48.0815 47.4171 48.5349 47.7785C48.2629 47.7785 47.9002 47.7785 47.6281 47.8688C47.2654 47.7785 46.9933 47.5075 46.6306 47.2364C45.1797 45.9717 43.9102 44.7069 42.4593 43.5325C41.2804 42.358 40.1015 41.0933 39.0134 40.0092C40.5549 40.7319 41.8245 41.6353 43.094 42.4484ZM5.76085 8.09582C5.85153 8.18616 6.82382 9.03853 7.00518 9.12887L9.39015 10.6784C9.20879 10.4978 5.94221 8.09582 5.76085 8.09582ZM11.2566 13.7776C10.9456 12.7914 7.52365 9.95531 6.18661 9.29322C6.18661 9.29322 6.18661 9.29322 6.09593 9.29322C6.91206 10.1966 10.3498 13.0549 11.2566 13.7776ZM25.1391 26.5484C23.9602 26.0063 22.9627 25.0126 21.7838 24.1092C21.5118 23.8381 20.877 23.7478 20.5143 23.2961C19.9702 22.8444 19.5168 22.6637 18.9727 22.3023L19.1541 22.754C18.5193 21.941 17.7032 21.941 17.0684 21.0375C16.9777 21.1279 16.7964 21.1279 16.7057 21.0375C16.1616 20.5858 15.7082 19.9535 15.1641 19.6824C14.62 19.2307 14.0759 18.6887 13.5318 18.4177C13.4411 18.3273 12.9877 18.3273 12.7157 18.1466C12.4436 17.8756 12.1716 17.6949 11.8995 17.4239V17.5142C12.0809 17.6949 12.353 17.966 12.5343 18.0563C13.2598 18.5983 14.1666 19.1404 14.8014 19.6824C16.5243 21.1279 18.1566 22.3023 19.8795 23.4768C20.2423 23.7478 20.6957 23.9285 21.0584 24.1995C22.2373 24.9222 23.3254 26.0967 24.4136 26.2773C24.6857 26.3677 24.9577 26.5484 25.1391 26.5484ZM29.0384 25.0126C27.6782 24.1995 26.3179 23.1154 25.3204 22.0313C24.5043 21.2182 21.6932 19.2307 21.4211 20.3148C23.7788 19.9535 28.3129 27.0904 29.0384 25.0126ZM38.832 32.5109C38.2879 32.1495 37.7438 31.8785 37.2904 31.3364C37.8345 31.6978 38.3786 32.0592 38.832 32.5109ZM31.8495 30.6137C33.6631 31.5171 35.114 32.8722 36.7463 34.0467C38.0159 34.8597 38.832 36.3052 40.1922 36.8472C40.2829 36.7569 40.2829 36.7569 40.3736 36.6666H40.1922C39.8295 36.3052 39.6481 35.8535 39.3761 35.4921H39.4668L39.3761 35.4018C39.1947 35.1308 39.0134 34.9501 38.7413 34.7694C38.56 34.679 38.4693 34.5887 38.2879 34.4984C36.837 33.3239 35.4768 32.0592 33.8445 31.3364C32.9377 30.7944 32.0309 30.5234 31.0334 29.9813C31.3054 30.0717 31.5775 30.433 31.8495 30.6137Z" fill="url(#paint1_linear_12678_15148)"/>
</g>
<rect x="14.3005" y="15.2669" width="24.8983" height="24.2937" stroke="url(#paint2_linear_12678_15148)" stroke-width="3.39195"/>
<path d="M46.0338 46.2294C46.0338 46.2294 46.1156 46.1479 46.1156 46.3109C46.1156 46.3109 46.1156 46.3109 46.0338 46.2294C46.0338 46.2294 45.952 46.3109 45.8701 46.3109C46.2793 46.5554 46.6884 46.8815 47.0975 47.2076C47.1793 47.2076 47.343 47.2076 47.4248 47.1261C46.4429 46.2294 45.5428 45.3327 44.4791 44.8436C45.0519 45.4957 45.5428 45.7403 46.0338 46.2294Z" fill="url(#paint3_linear_12678_15148)"/>
<path d="M47.8336 46.962L47.9154 47.0435C47.9154 46.8805 47.9154 46.8805 47.8336 46.962Z" fill="url(#paint4_linear_12678_15148)"/>
<path d="M30.2411 31.8821C29.5865 31.393 28.9319 31.0669 28.2773 30.7409C29.5047 31.6376 30.6503 32.6157 31.714 33.2679C31.1412 32.8603 30.7321 32.3712 30.2411 31.8821Z" fill="url(#paint5_linear_12678_15148)"/>
<path d="M25.0042 29.0292C25.577 29.8444 26.3134 30.252 27.0498 30.6595C26.4771 30.1704 25.8225 29.6813 25.2497 29.1107C25.1679 29.1107 25.086 29.0292 25.0042 29.0292Z" fill="url(#paint6_linear_12678_15148)"/>
<path d="M26.0684 29.4363C26.723 30.0885 27.4594 30.4146 28.1958 30.7406C27.5412 30.2515 26.8048 29.8439 26.0684 29.4363Z" fill="url(#paint7_linear_12678_15148)"/>
<path d="M43.9882 36.936C44.5609 37.1806 44.8882 37.3436 45.0519 37.5066C45.2155 37.5066 45.3792 37.5066 45.6247 37.5066L45.5428 37.4251C44.9701 37.0991 44.4791 36.773 43.9063 36.3654C43.6609 36.2839 43.4154 36.1208 43.1699 36.1208C43.4972 36.3654 43.7427 36.6915 43.9882 36.936Z" fill="url(#paint8_linear_12678_15148)"/>
<path d="M38.8336 38.3217C38.7518 38.3217 38.7518 38.3217 38.8336 38.3217C38.6699 38.2402 38.5881 38.1587 38.5063 38.0772C38.5881 38.2402 38.7518 38.2402 38.8336 38.3217Z" fill="url(#paint9_linear_12678_15148)"/>
<path d="M35.151 31.5558C35.5601 31.8818 35.9693 32.2079 36.3784 32.5339C35.5601 31.8818 34.7419 31.1482 33.9236 30.6591C34.0055 30.7406 34.0873 30.9036 34.1691 30.9851C34.4964 31.0666 34.9055 31.2297 35.151 31.5558Z" fill="url(#paint10_linear_12678_15148)"/>
<path d="M40.6327 38.8921C41.1237 39.2182 41.6146 39.5442 42.0237 39.9518C42.4329 40.1964 42.842 40.4409 43.1693 40.6855C44.9694 41.9082 46.6059 43.7016 48.4061 45.2504C48.6515 45.1689 48.8152 45.0059 48.897 44.7613C47.3423 42.8049 45.2967 41.4191 43.5784 39.5442C43.5784 39.5442 43.5784 39.5442 43.4966 39.5442C42.4329 39.1366 41.2873 37.8324 40.06 37.1802C38.7508 36.6096 37.7689 35.7944 36.5415 35.1423C38.0143 36.2835 39.4054 37.4248 40.6327 38.8921Z" fill="url(#paint11_linear_12678_15148)"/>
<path d="M27.051 30.6591C27.4601 30.9851 27.8692 31.3112 28.2783 31.6372C29.4239 32.5339 30.5694 33.2676 31.715 34.0013C30.9785 33.3491 30.2421 32.697 29.5875 31.9633C28.7693 31.3927 27.8692 31.0666 27.051 30.6591Z" fill="url(#paint12_linear_12678_15148)"/>
<path d="M32.6149 34.6545C32.2876 34.4914 31.9603 34.2469 31.7148 34.0838C32.7786 35.062 33.8423 36.0402 34.9878 36.9369C36.8698 38.4042 38.7517 39.79 40.7155 41.1758C40.961 41.3389 41.1247 41.5019 41.3701 41.6649C38.3426 38.4858 35.3151 35.3881 31.9603 33.4317C31.8785 33.4317 31.7967 33.3502 31.7967 33.3502C33.1059 34.5729 34.4151 35.7142 35.7242 36.8554C34.5787 36.0403 33.5968 35.3066 32.6149 34.6545Z" fill="url(#paint13_linear_12678_15148)"/>
<path d="M40.2249 38.5659C40.3067 38.6474 40.3885 38.7289 40.4703 38.8105C40.634 38.892 40.7158 38.9735 40.8795 39.055C40.7976 38.9735 40.7976 38.892 40.7158 38.892C40.4703 38.7289 40.3885 38.6474 40.2249 38.5659Z" fill="url(#paint14_linear_12678_15148)"/>
<path d="M38.9971 34.4095C38.6698 34.0834 38.3425 33.8389 38.0152 33.5943C37.5242 33.2683 36.9515 32.9422 36.4605 32.5346C37.2788 33.2683 38.1788 34.0019 38.9971 34.4095Z" fill="url(#paint15_linear_12678_15148)"/>
<path d="M37.7691 30.4951C37.6873 30.4136 37.5236 30.2506 37.36 30.0876C37.2781 30.0876 37.1963 30.006 37.1145 30.006C37.1963 30.0876 37.2781 30.1691 37.36 30.2506L37.7691 30.4951Z" fill="url(#paint16_linear_12678_15148)"/>
<path d="M31.3052 25.8494C33.1872 27.3168 34.9873 28.621 36.7874 29.9253C36.8693 29.9253 37.0329 30.0068 37.1147 30.0068C36.1328 28.9471 34.9873 27.9689 33.7599 27.3167C33.5145 27.1537 33.0235 27.0722 32.8599 26.9092C31.878 26.094 30.8961 25.4418 29.9142 24.7082C30.3233 25.1158 30.8143 25.5234 31.3052 25.8494Z" fill="url(#paint17_linear_12678_15148)"/>
<g filter="url(#filter1_i_12678_15148)">
<path d="M6.37007 48.9518C6.2789 49.0426 6.2789 49.0426 6.37007 48.9518C6.37007 49.0426 6.37007 49.0426 6.37007 49.0426C6.37007 49.0426 6.37007 49.0426 6.37007 48.9518Z" fill="url(#paint18_linear_12678_15148)"/>
<path d="M49.2617 6.31305C49.2617 6.31305 49.171 6.2227 49.3524 6.2227C49.2617 6.31304 49.2617 6.31305 49.2617 6.31305C49.2617 6.31305 49.3524 6.40338 49.3524 6.49373C49.6244 6.04202 49.9871 5.59032 50.3499 5.13861C50.3499 5.04827 50.3499 4.86759 50.2592 4.77725C49.2617 5.86134 48.2642 6.85509 47.7201 8.02952C48.3549 7.39713 48.7176 6.94543 49.2617 6.31305Z" fill="url(#paint19_linear_12678_15148)"/>
<path d="M10.1784 6.63638C10.1784 6.63638 10.363 6.60328 10.0302 6.52188C10.1784 6.63637 10.1784 6.63638 10.1784 6.63638C10.1784 6.63638 9.99382 6.66946 9.97564 6.74325C9.56727 6.25221 8.99247 5.72047 8.41768 5.18873C8.43586 5.11494 8.47223 4.96737 8.65683 4.93428C10.2693 6.26742 11.9 7.52678 12.6622 8.73023C11.6245 7.92882 11.0497 7.39709 10.1784 6.63638Z" fill="url(#paint20_linear_12678_15148)"/>
<path d="M49.9866 4.3245L50.0777 4.23367C49.9866 4.23367 49.9866 4.3245 49.9866 4.3245Z" fill="url(#paint21_linear_12678_15148)"/>
<path d="M33.3016 23.8382C32.7575 24.5609 32.3948 25.2836 32.032 26.0064C33.0295 24.6513 34.1177 23.3865 34.8432 22.2121C34.2991 22.7541 33.755 23.2961 33.3016 23.8382Z" fill="url(#paint22_linear_12678_15148)"/>
<path d="M30.0374 29.621C30.9442 28.9886 31.3976 28.1755 31.851 27.3624C31.3069 27.9948 30.7628 28.7176 30.128 29.3499C30.128 29.4403 30.128 29.5306 30.0374 29.621Z" fill="url(#paint23_linear_12678_15148)"/>
<path d="M30.5818 28.3557C31.3072 27.633 31.67 26.8199 32.0327 26.0068C31.4886 26.8199 30.9445 27.5426 30.5818 28.3557Z" fill="url(#paint24_linear_12678_15148)"/>
<path d="M38.8333 8.57046C39.1054 7.93807 39.2867 7.57671 39.4681 7.39603C39.4681 7.21534 39.4681 7.03466 39.4681 6.76364L39.3774 6.85399C39.0147 7.48637 38.652 8.02842 38.1986 8.66081C38.1079 8.93183 37.9265 9.20285 37.9265 9.47387C38.2892 9.20285 38.5613 8.84148 38.8333 8.57046Z" fill="url(#paint25_linear_12678_15148)"/>
<path d="M40.3753 14.3539C40.2846 14.5346 40.1939 14.625 40.1032 14.7153C40.2846 14.5346 40.3753 14.4443 40.3753 14.3539Z" fill="url(#paint26_linear_12678_15148)"/>
<path d="M32.8487 18.3281C33.2114 17.8764 33.5742 17.4247 33.9369 16.973C33.2114 17.8764 32.3953 18.7798 31.8512 19.6833C31.9419 19.5929 32.1232 19.5026 32.2139 19.4122C32.3046 19.0509 32.5767 18.6895 32.8487 18.3281Z" fill="url(#paint27_linear_12678_15148)"/>
<path d="M43.0955 10.5581C42.098 11.8229 41.1912 13.178 40.3751 14.4428C38.1987 16.611 36.2944 18.8695 34.8435 21.3087C33.6646 23.4769 30.6721 26.2775 29.9467 28.8974C30.128 28.7167 30.3094 28.6263 30.4908 28.4457C30.3094 28.807 30.2187 29.0781 30.128 29.4394C27.589 32.4207 25.0499 35.2212 22.2387 38.0218C21.7853 38.4735 21.6946 38.9252 21.2412 39.3769C20.7878 39.8286 20.4251 40.19 20.0624 40.6417C20.0624 40.6417 20.0624 40.6417 20.1531 40.6417C18.5208 42.4485 16.9792 44.2553 15.3469 46.2428C14.6215 47.1463 13.7147 47.869 12.8078 48.7724C12.5358 49.0434 12.2638 48.8627 11.9917 48.9531C10.8128 49.4951 9.99671 49.8565 8.90853 50.6696C8.90853 50.6696 8.81784 50.5792 8.72716 50.4889C8.63648 50.6695 8.45512 50.7599 8.36444 50.8502C8.0924 49.6758 8.99921 48.3207 7.27626 49.0434C7.36694 48.9531 7.36694 48.8627 7.36694 48.7724C7.5483 48.411 7.63899 48.0496 7.5483 47.6883C7.36694 47.869 7.18558 48.0497 7.00422 48.2303C6.91353 48.14 6.91353 47.9593 6.82285 47.9593V47.869C6.91353 47.7786 7.00422 47.6883 7.00422 47.6883C7.00422 47.5979 6.91353 47.5076 6.91353 47.5076C7.09489 46.7849 7.72966 45.8815 7.36694 45.7911C7.09489 45.7911 6.91353 46.2428 6.55081 46.6946C6.46013 46.6946 6.46012 46.6946 6.36944 46.6946C6.82285 46.1525 5.91603 46.2428 6.18808 45.8815C6.64149 45.4298 6.91353 44.9781 7.36694 44.6167C9.08989 42.9002 10.4501 41.4548 11.901 39.5576C11.9917 39.4673 11.9917 39.3769 12.0824 39.2866C12.8078 38.3832 13.5333 37.6604 14.4401 36.9377C14.4401 37.028 14.4401 37.1184 14.4401 37.2087C15.0749 36.5764 15.8003 36.0343 16.3444 35.3116C17.614 33.5048 18.9742 31.6979 20.6065 29.9815C22.3294 28.1746 23.871 26.3678 25.4126 24.3803C24.8685 25.2837 24.2337 26.0968 23.5083 26.9099C23.1455 27.2712 22.8735 27.5422 22.5108 27.9036C22.8735 27.6326 23.1455 27.2712 23.5083 26.9099C24.7778 25.6451 26.2287 24.3803 26.5915 22.8445C26.7728 22.7542 26.7728 22.8445 26.9542 22.7542C27.6796 22.0315 28.4958 21.3991 28.8585 20.4957C28.7678 20.4053 29.1305 20.1343 28.8585 20.1343C29.4026 19.4115 30.128 18.6888 30.6721 17.9661C30.9442 17.6951 31.0349 17.2434 31.2162 16.882C33.1205 14.3525 35.0248 11.8229 37.1105 9.11269C37.6546 8.4803 38.3801 7.75756 38.9242 7.12518C38.1987 8.20927 37.4732 9.29337 36.7478 10.3775C35.841 11.1905 34.9342 12.0939 34.5714 13.0877C34.4808 13.2684 34.3901 13.5394 34.2087 13.7201C35.1155 12.5456 35.9317 11.4615 36.7478 10.2871C37.2919 9.74507 37.9267 9.29336 38.4707 8.75132C38.108 9.29336 37.7453 9.74507 37.3826 10.2871C36.5664 11.0098 35.7503 11.8229 35.2969 12.7263C35.2062 12.8167 35.2062 12.907 35.1155 13.0877C35.0248 13.2684 34.9342 13.5394 34.7528 13.7201C35.2969 12.9973 35.841 12.2746 36.2944 11.6422C36.6571 11.1905 36.9292 10.7388 37.2919 10.3775C37.5639 10.1968 37.836 9.92576 38.0173 9.74507V9.83541C37.836 10.1064 38.0173 11.4616 38.5614 11.2809C40.103 9.65473 42.098 7.12518 42.1887 7.21552C42.5514 7.39621 40.103 10.4678 40.2844 10.3775C40.4657 10.2871 40.6471 10.1064 40.8285 10.0161C40.7378 10.1968 40.6471 10.3775 40.5564 10.5581C40.2844 10.9195 39.831 11.2809 39.7403 11.6422C39.3776 12.7263 38.4708 13.4491 37.836 14.5332C37.4733 15.2559 37.1105 16.0689 36.7478 16.9723C36.8385 17.0627 36.4758 17.3337 36.7478 17.3337C36.2037 17.8758 35.4783 18.5985 35.5689 19.2309C35.5689 19.2309 35.5689 19.2309 35.5689 19.3212C35.5689 19.3212 35.4783 19.4116 35.4783 19.5019C34.4808 20.4053 34.118 21.3991 33.4833 22.5735C33.2112 22.9349 32.9392 23.2059 32.5764 23.5673C32.7578 23.3866 33.1205 23.1155 33.3019 22.8445C33.3926 22.7542 33.3926 22.6638 33.4833 22.5735C34.2087 21.6701 34.7528 20.7667 35.3876 19.8633C35.3876 19.7729 35.4783 19.5922 35.4783 19.5019C35.5689 19.4116 35.5689 19.4116 35.6596 19.3212V19.2309C36.2037 18.3275 36.9292 17.4241 37.3826 16.7013C38.2894 15.3462 39.6496 14.2621 40.8285 13.0877C40.3751 13.8104 39.9217 14.4428 39.4682 15.1655C40.103 14.3525 40.6471 13.5394 41.1912 12.8167C41.2819 12.7263 41.3726 12.636 41.4632 12.5456L42.098 11.9133C41.9167 12.0939 41.6446 12.2746 41.4632 12.4553C41.7353 12.0036 42.098 11.5519 42.3701 11.1002C44.1837 8.75132 46.1787 6.40245 48.355 4.41495C48.355 4.50529 48.4457 4.68598 48.4457 4.77632C47.4482 5.86041 46.4507 6.85415 45.9066 8.02859C46.4507 7.48654 46.8135 6.9445 47.3576 6.31211C47.3576 6.31211 47.4482 6.40245 47.4482 6.49279C47.7203 6.04109 48.083 5.58938 48.4457 5.13768C48.4457 5.4087 48.4457 5.77007 48.5364 6.04109C48.4457 6.40245 48.1737 6.67348 47.9016 7.03484C46.6321 8.4803 45.3626 9.74507 44.1837 11.1905C43.0048 12.365 41.7353 13.5394 40.6471 14.6235C41.3726 12.9973 42.2794 11.7326 43.0955 10.5581ZM9.81535 46.8752C9.90603 46.7849 9.99671 46.6042 10.0874 46.4235H9.99671C9.81534 46.6042 9.81535 46.7849 9.81535 46.8752ZM12.3544 44.5263C11.5383 45.1587 10.7222 46.2428 9.90603 47.2366C9.90603 47.2366 9.90603 47.2366 9.90603 47.3269C10.7222 46.6042 11.5383 45.5201 12.3544 44.5263ZM27.1355 28.3553C26.5915 29.5297 25.594 30.5235 24.6871 31.6979C24.4151 31.969 24.3244 32.6013 23.871 32.9627C23.4176 33.5048 23.2362 33.9565 22.8735 34.4985L23.3269 34.3178C22.5108 34.9502 22.5108 35.7633 21.604 36.3957C21.6946 36.486 21.6946 36.6667 21.604 36.757C21.1506 37.2991 20.5158 37.7508 20.2437 38.2928C19.7903 38.8349 19.2462 39.3769 18.9742 39.919C18.8835 40.0093 18.8835 40.461 18.7021 40.732C18.4301 41.0031 18.2487 41.2741 17.9767 41.5451H18.0674C18.2487 41.3644 18.5208 41.0934 18.6115 40.9127C19.1556 40.19 19.6996 39.2866 20.2437 38.6542C21.6946 36.9377 22.8735 35.3116 24.0524 33.5951C24.3244 33.2337 24.5058 32.782 24.7778 32.4207C25.5033 31.2462 26.6821 30.1621 26.8635 29.0781C26.9542 28.807 27.1355 28.6263 27.1355 28.3553ZM25.594 24.561C24.7778 25.9161 23.6896 27.2712 22.6015 28.265C21.7853 29.078 19.7903 31.8786 20.8785 32.1496C20.5158 29.7104 27.7703 25.2837 25.594 24.561ZM33.1205 14.7138C32.7578 15.2559 32.4858 15.7979 31.9417 16.2496C32.3044 15.7979 32.7578 15.2559 33.1205 14.7138ZM31.2162 21.6701C32.123 19.8633 33.4833 18.4178 34.6621 16.7917C35.4783 15.5269 36.9292 14.7138 37.4733 13.3587C37.3826 13.2684 37.3826 13.2684 37.2919 13.178V13.3587C36.9292 13.7201 36.4758 13.9008 36.113 14.1718V14.0814L36.0223 14.1718C35.7503 14.3525 35.5689 14.5331 35.3876 14.8042C35.2969 14.9848 35.2062 15.0752 35.1155 15.2559C33.9367 16.7013 32.6671 18.0564 31.9417 19.6826C31.3976 20.586 31.1255 21.4894 30.5814 22.4831C30.6721 22.2121 31.1255 21.9411 31.2162 21.6701Z" fill="url(#paint28_linear_12678_15148)"/>
<path d="M41.0096 12.2746C41.3723 11.7326 41.7351 11.1905 42.1885 10.7388C42.4605 10.2871 42.7326 9.83541 43.0046 9.47405C44.3648 7.48655 46.3598 5.67973 48.0828 3.69223C47.9921 3.42121 47.8107 3.24052 47.5387 3.15018C45.3623 4.86666 43.8207 7.12518 41.7351 9.02234C41.7351 9.02234 41.7351 9.02235 41.7351 9.11269C41.2817 10.2871 39.8308 11.5519 39.1053 12.907C38.4705 14.3525 37.5637 15.4366 36.8383 16.7917C38.1078 15.1655 39.3773 13.6297 41.0096 12.2746Z" fill="url(#paint29_linear_12678_15148)"/>
<path d="M31.8512 27.3615C32.2139 26.9098 32.5767 26.4581 32.9394 26.0064C33.9369 24.7416 34.753 23.4768 35.5691 22.2121C34.8437 23.0251 34.1182 23.8382 33.3021 24.5609C32.6673 25.4643 32.3046 26.3677 31.8512 27.3615Z" fill="url(#paint30_linear_12678_15148)"/>
<path d="M36.2953 21.2192C36.1139 21.5805 35.8419 21.9419 35.6605 22.2129C36.7487 21.0385 37.8369 19.864 38.8344 18.5993C40.4666 16.5214 42.0082 14.4436 43.5498 12.2754C43.7312 12.0044 43.9125 11.8237 44.0939 11.5527C40.5573 14.8953 37.1114 18.2379 34.935 21.9419C34.935 22.0322 34.8444 22.1226 34.8444 22.1226C36.2046 20.6771 37.4741 19.2317 38.7437 17.7862C37.8369 18.9606 37.0207 20.0447 36.2953 21.2192Z" fill="url(#paint31_linear_12678_15148)"/>
<path d="M40.6467 12.8171C40.7373 12.7268 40.828 12.6364 40.9187 12.5461C41.0094 12.3654 41.1001 12.2751 41.1908 12.0944C41.1001 12.1847 41.0094 12.1847 41.0094 12.2751C40.9187 12.4558 40.7373 12.6364 40.6467 12.8171Z" fill="url(#paint32_linear_12678_15148)"/>
<path d="M36.0227 14.1709C35.66 14.5323 35.3879 14.8936 35.1159 15.255C34.7531 15.797 34.3904 16.4294 33.937 16.9715C34.7531 15.9777 35.5693 15.0743 36.0227 14.1709Z" fill="url(#paint33_linear_12678_15148)"/>
<path d="M31.6693 15.5266C31.5787 15.6169 31.3973 15.7976 31.2159 15.9783C31.2159 16.0686 31.1252 16.159 31.1252 16.2493C31.2159 16.159 31.3066 16.0686 31.3973 15.9783L31.6693 15.5266Z" fill="url(#paint34_linear_12678_15148)"/>
<path d="M26.5009 22.6642C28.1331 20.5863 29.584 18.5988 31.035 16.6113C31.035 16.521 31.1256 16.3403 31.1256 16.25C29.9468 17.3341 28.8586 18.5988 28.1331 19.954C27.9518 20.225 27.8611 20.767 27.6797 20.9477C26.7729 22.0318 26.0475 23.1159 25.2313 24.2C25.6847 23.7483 26.1381 23.2062 26.5009 22.6642Z" fill="url(#paint35_linear_12678_15148)"/>
</g>
<g filter="url(#filter2_i_12678_15148)">
<path d="M8.16469 6.01494C10.0005 7.72671 11.7611 9.2536 13.5217 10.7805C13.6045 10.7839 13.7663 10.8814 13.849 10.8849C12.9048 9.66431 11.7913 8.52769 10.5799 7.7506C10.3391 7.55888 10.0666 7.25101 9.90858 7.06271C8.95305 6.11438 9.62355 6.78379 8.66425 5.92619C9.05925 6.39695 7.68315 5.63151 8.16469 6.01494Z" fill="url(#paint36_linear_12678_15148)"/>
</g>
<path d="M75.7666 14.1592L71.3867 24.675L67.0067 14.1592H65L70.3833 27.0675L65 39.9759H67.0067L71.3867 29.4601L75.7666 39.9759H77.754L72.3707 27.0675L77.754 14.1592H75.7666Z" fill="white"/>
<path d="M92.4367 39.9759C88.8736 39.9759 85.8314 38.7153 83.3102 36.1941C80.789 33.6729 79.5284 30.6307 79.5284 27.0675C79.5284 23.5044 80.789 20.4622 83.3102 17.941C85.8314 15.4198 88.8736 14.1592 92.4367 14.1592V15.9922C89.3881 15.9922 86.7833 17.0792 84.6223 19.2531C82.4612 21.4141 81.3807 24.0189 81.3807 27.0675C81.3807 30.1162 82.4612 32.721 84.6223 34.882C86.7833 37.0431 89.3881 38.1236 92.4367 38.1236V39.9759Z" fill="white"/>
<path d="M109.666 14.1592L103.569 33.7629L97.4913 14.1592H95.5618L103.569 39.9759L111.596 14.1592H109.666Z" fill="white"/>
<path d="M135 14.0241L124.87 22.5332L114.721 14.0241V39.9759H116.573V17.9796L124.87 24.9451L133.167 17.9796V39.9759H135V14.0241Z" fill="white"/>
<defs>
<filter id="filter0_i_12678_15148" x="2.65002" y="5.62781" width="46.6104" height="43.1808" filterUnits="userSpaceOnUse" color-interpolation-filters="sRGB">
<feFlood flood-opacity="0" result="BackgroundImageFix"/>
<feBlend mode="normal" in="SourceGraphic" in2="BackgroundImageFix" result="shape"/>
<feColorMatrix in="SourceAlpha" type="matrix" values="0 0 0 0 0 0 0 0 0 0 0 0 0 0 0 0 0 0 127 0" result="hardAlpha"/>
<feOffset dy="0.939779"/>
<feGaussianBlur stdDeviation="2.96796"/>
<feComposite in2="hardAlpha" operator="arithmetic" k2="-1" k3="1"/>
<feColorMatrix type="matrix" values="0 0 0 0 0.941176 0 0 0 0 0.403922 0 0 0 0 0.176471 0 0 0 0.7 0"/>
<feBlend mode="normal" in2="shape" result="effect1_innerShadow_12678_15148"/>
</filter>
<filter id="filter1_i_12678_15148" x="6.13611" y="3.15018" width="44.2137" height="48.6398" filterUnits="userSpaceOnUse" color-interpolation-filters="sRGB">
<feFlood flood-opacity="0" result="BackgroundImageFix"/>
<feBlend mode="normal" in="SourceGraphic" in2="BackgroundImageFix" result="shape"/>
<feColorMatrix in="SourceAlpha" type="matrix" values="0 0 0 0 0 0 0 0 0 0 0 0 0 0 0 0 0 0 127 0" result="hardAlpha"/>
<feOffset dy="0.939779"/>
<feGaussianBlur stdDeviation="1.64461"/>
<feComposite in2="hardAlpha" operator="arithmetic" k2="-1" k3="1"/>
<feColorMatrix type="matrix" values="0 0 0 0 0.6 0 0 0 0 0.156863 0 0 0 0 0.501961 0 0 0 1 0"/>
<feBlend mode="normal" in2="shape" result="effect1_innerShadow_12678_15148"/>
</filter>
<filter id="filter2_i_12678_15148" x="8.0611" y="5.90323" width="5.78796" height="5.92141" filterUnits="userSpaceOnUse" color-interpolation-filters="sRGB">
<feFlood flood-opacity="0" result="BackgroundImageFix"/>
<feBlend mode="normal" in="SourceGraphic" in2="BackgroundImageFix" result="shape"/>
<feColorMatrix in="SourceAlpha" type="matrix" values="0 0 0 0 0 0 0 0 0 0 0 0 0 0 0 0 0 0 127 0" result="hardAlpha"/>
<feOffset dy="0.939779"/>
<feGaussianBlur stdDeviation="2.96796"/>
<feComposite in2="hardAlpha" operator="arithmetic" k2="-1" k3="1"/>
<feColorMatrix type="matrix" values="0 0 0 0 0.941176 0 0 0 0 0.403922 0 0 0 0 0.176471 0 0 0 0.7 0"/>
<feBlend mode="normal" in2="shape" result="effect1_innerShadow_12678_15148"/>
</filter>
<linearGradient id="paint0_linear_12678_15148" x1="7.61877" y1="12.1433" x2="10.0735" y2="12.1433" gradientUnits="userSpaceOnUse">
<stop stop-color="#8A2387"/>
<stop offset="0.5" stop-color="#E94057"/>
<stop offset="1" stop-color="#F27121"/>
</linearGradient>
<linearGradient id="paint1_linear_12678_15148" x1="2.65002" y1="26.7483" x2="49.2604" y2="26.7483" gradientUnits="userSpaceOnUse">
<stop stop-color="#8A2387"/>
<stop offset="1" stop-color="#E94057"/>
</linearGradient>
<linearGradient id="paint2_linear_12678_15148" x1="12.6046" y1="27.4138" x2="40.8948" y2="27.4138" gradientUnits="userSpaceOnUse">
<stop offset="0.5" stop-color="#E94057"/>
<stop offset="1" stop-color="#F27121"/>
</linearGradient>
<linearGradient id="paint3_linear_12678_15148" x1="44.4791" y1="46.0256" x2="47.4248" y2="46.0256" gradientUnits="userSpaceOnUse">
<stop stop-color="#8A2387"/>
<stop offset="0.5" stop-color="#E94057"/>
<stop offset="1" stop-color="#F27121"/>
</linearGradient>
<linearGradient id="paint4_linear_12678_15148" x1="47.8336" y1="46.976" x2="47.9154" y2="46.976" gradientUnits="userSpaceOnUse">
<stop stop-color="#8A2387"/>
<stop offset="0.5" stop-color="#E94057"/>
<stop offset="1" stop-color="#F27121"/>
</linearGradient>
<linearGradient id="paint5_linear_12678_15148" x1="28.2773" y1="32.0044" x2="31.714" y2="32.0044" gradientUnits="userSpaceOnUse">
<stop stop-color="#8A2387"/>
<stop offset="0.5" stop-color="#E94057"/>
<stop offset="1" stop-color="#F27121"/>
</linearGradient>
<linearGradient id="paint6_linear_12678_15148" x1="25.0042" y1="29.8444" x2="27.0498" y2="29.8444" gradientUnits="userSpaceOnUse">
<stop stop-color="#8A2387"/>
<stop offset="0.5" stop-color="#E94057"/>
<stop offset="1" stop-color="#F27121"/>
</linearGradient>
<linearGradient id="paint7_linear_12678_15148" x1="26.0684" y1="30.0885" x2="28.1958" y2="30.0885" gradientUnits="userSpaceOnUse">
<stop stop-color="#8A2387"/>
<stop offset="0.5" stop-color="#E94057"/>
<stop offset="1" stop-color="#F27121"/>
</linearGradient>
<linearGradient id="paint8_linear_12678_15148" x1="43.1699" y1="36.8137" x2="45.6247" y2="36.8137" gradientUnits="userSpaceOnUse">
<stop stop-color="#8A2387"/>
<stop offset="0.5" stop-color="#E94057"/>
<stop offset="1" stop-color="#F27121"/>
</linearGradient>
<linearGradient id="paint9_linear_12678_15148" x1="38.5063" y1="38.1994" x2="38.8336" y2="38.1994" gradientUnits="userSpaceOnUse">
<stop stop-color="#8A2387"/>
<stop offset="0.5" stop-color="#E94057"/>
<stop offset="1" stop-color="#F27121"/>
</linearGradient>
<linearGradient id="paint10_linear_12678_15148" x1="33.9236" y1="31.5965" x2="36.3784" y2="31.5965" gradientUnits="userSpaceOnUse">
<stop stop-color="#8A2387"/>
<stop offset="0.5" stop-color="#E94057"/>
<stop offset="1" stop-color="#F27121"/>
</linearGradient>
<linearGradient id="paint11_linear_12678_15148" x1="36.5415" y1="40.1964" x2="48.897" y2="40.1964" gradientUnits="userSpaceOnUse">
<stop stop-color="#8A2387"/>
<stop offset="0.5" stop-color="#E94057"/>
<stop offset="1" stop-color="#F27121"/>
</linearGradient>
<linearGradient id="paint12_linear_12678_15148" x1="27.051" y1="32.3302" x2="31.715" y2="32.3302" gradientUnits="userSpaceOnUse">
<stop stop-color="#8A2387"/>
<stop offset="0.5" stop-color="#E94057"/>
<stop offset="1" stop-color="#F27121"/>
</linearGradient>
<linearGradient id="paint13_linear_12678_15148" x1="31.7148" y1="37.5076" x2="41.3701" y2="37.5076" gradientUnits="userSpaceOnUse">
<stop stop-color="#8A2387"/>
<stop offset="0.5" stop-color="#E94057"/>
<stop offset="1" stop-color="#F27121"/>
</linearGradient>
<linearGradient id="paint14_linear_12678_15148" x1="40.2249" y1="38.8104" x2="40.8795" y2="38.8104" gradientUnits="userSpaceOnUse">
<stop stop-color="#8A2387"/>
<stop offset="0.5" stop-color="#E94057"/>
<stop offset="1" stop-color="#F27121"/>
</linearGradient>
<linearGradient id="paint15_linear_12678_15148" x1="36.4605" y1="33.4721" x2="38.9971" y2="33.4721" gradientUnits="userSpaceOnUse">
<stop stop-color="#8A2387"/>
<stop offset="0.5" stop-color="#E94057"/>
<stop offset="1" stop-color="#F27121"/>
</linearGradient>
<linearGradient id="paint16_linear_12678_15148" x1="37.1145" y1="30.2506" x2="37.7691" y2="30.2506" gradientUnits="userSpaceOnUse">
<stop stop-color="#8A2387"/>
<stop offset="0.5" stop-color="#E94057"/>
<stop offset="1" stop-color="#F27121"/>
</linearGradient>
<linearGradient id="paint17_linear_12678_15148" x1="29.9142" y1="27.3575" x2="37.1147" y2="27.3575" gradientUnits="userSpaceOnUse">
<stop stop-color="#8A2387"/>
<stop offset="0.5" stop-color="#E94057"/>
<stop offset="1" stop-color="#F27121"/>
</linearGradient>
<linearGradient id="paint18_linear_12678_15148" x1="6.3017" y1="48.9972" x2="6.37007" y2="48.9972" gradientUnits="userSpaceOnUse">
<stop stop-color="#F27121"/>
<stop offset="0.5" stop-color="#E94057"/>
<stop offset="1" stop-color="#8A2387"/>
</linearGradient>
<linearGradient id="paint19_linear_12678_15148" x1="47.7201" y1="6.40339" x2="50.3499" y2="6.40339" gradientUnits="userSpaceOnUse">
<stop stop-color="#F27121"/>
<stop offset="0.5" stop-color="#E94057"/>
<stop offset="1" stop-color="#8A2387"/>
</linearGradient>
<linearGradient id="paint20_linear_12678_15148" x1="12.9895" y1="7.40201" x2="8.16522" y2="6.21339" gradientUnits="userSpaceOnUse">
<stop stop-color="#F27121"/>
<stop offset="0.5" stop-color="#E94057"/>
<stop offset="1" stop-color="#8A2387"/>
</linearGradient>
<linearGradient id="paint21_linear_12678_15148" x1="49.9866" y1="4.27909" x2="50.0777" y2="4.27909" gradientUnits="userSpaceOnUse">
<stop stop-color="#F27121"/>
<stop offset="0.5" stop-color="#E94057"/>
<stop offset="1" stop-color="#8A2387"/>
</linearGradient>
<linearGradient id="paint22_linear_12678_15148" x1="32.032" y1="24.1092" x2="34.8432" y2="24.1092" gradientUnits="userSpaceOnUse">
<stop stop-color="#F27121"/>
<stop offset="0.5" stop-color="#E94057"/>
<stop offset="1" stop-color="#8A2387"/>
</linearGradient>
<linearGradient id="paint23_linear_12678_15148" x1="30.0374" y1="28.4917" x2="31.851" y2="28.4917" gradientUnits="userSpaceOnUse">
<stop stop-color="#F27121"/>
<stop offset="0.5" stop-color="#E94057"/>
<stop offset="1" stop-color="#8A2387"/>
</linearGradient>
<linearGradient id="paint24_linear_12678_15148" x1="30.5818" y1="27.1813" x2="32.0327" y2="27.1813" gradientUnits="userSpaceOnUse">
<stop stop-color="#F27121"/>
<stop offset="0.5" stop-color="#E94057"/>
<stop offset="1" stop-color="#8A2387"/>
</linearGradient>
<linearGradient id="paint25_linear_12678_15148" x1="37.9265" y1="8.11876" x2="39.4681" y2="8.11876" gradientUnits="userSpaceOnUse">
<stop stop-color="#F27121"/>
<stop offset="0.5" stop-color="#E94057"/>
<stop offset="1" stop-color="#8A2387"/>
</linearGradient>
<linearGradient id="paint26_linear_12678_15148" x1="40.1032" y1="14.5346" x2="40.3753" y2="14.5346" gradientUnits="userSpaceOnUse">
<stop stop-color="#F27121"/>
<stop offset="0.5" stop-color="#E94057"/>
<stop offset="1" stop-color="#8A2387"/>
</linearGradient>
<linearGradient id="paint27_linear_12678_15148" x1="31.8512" y1="18.3281" x2="33.9369" y2="18.3281" gradientUnits="userSpaceOnUse">
<stop stop-color="#F27121"/>
<stop offset="0.5" stop-color="#E94057"/>
<stop offset="1" stop-color="#8A2387"/>
</linearGradient>
<linearGradient id="paint28_linear_12678_15148" x1="6.13611" y1="27.6326" x2="48.5364" y2="27.6326" gradientUnits="userSpaceOnUse">
<stop stop-color="#8A2387"/>
<stop offset="0.208333" stop-color="#E94057"/>
<stop offset="1" stop-color="#F27121"/>
</linearGradient>
<linearGradient id="paint29_linear_12678_15148" x1="36.8383" y1="9.97093" x2="48.0828" y2="9.97093" gradientUnits="userSpaceOnUse">
<stop stop-color="#F27121"/>
<stop offset="0.5" stop-color="#E94057"/>
<stop offset="1" stop-color="#8A2387"/>
</linearGradient>
<linearGradient id="paint30_linear_12678_15148" x1="31.8512" y1="24.7868" x2="35.5691" y2="24.7868" gradientUnits="userSpaceOnUse">
<stop stop-color="#F27121"/>
<stop offset="0.5" stop-color="#E94057"/>
<stop offset="1" stop-color="#8A2387"/>
</linearGradient>
<linearGradient id="paint31_linear_12678_15148" x1="34.8444" y1="16.8828" x2="44.0939" y2="16.8828" gradientUnits="userSpaceOnUse">
<stop stop-color="#F27121"/>
<stop offset="0.5" stop-color="#E94057"/>
<stop offset="1" stop-color="#8A2387"/>
</linearGradient>
<linearGradient id="paint32_linear_12678_15148" x1="40.6467" y1="12.4558" x2="41.1908" y2="12.4558" gradientUnits="userSpaceOnUse">
<stop stop-color="#F27121"/>
<stop offset="0.5" stop-color="#E94057"/>
<stop offset="1" stop-color="#8A2387"/>
</linearGradient>
<linearGradient id="paint33_linear_12678_15148" x1="33.937" y1="15.5712" x2="36.0227" y2="15.5712" gradientUnits="userSpaceOnUse">
<stop stop-color="#F27121"/>
<stop offset="0.5" stop-color="#E94057"/>
<stop offset="1" stop-color="#8A2387"/>
</linearGradient>
<linearGradient id="paint34_linear_12678_15148" x1="31.1252" y1="15.8879" x2="31.6693" y2="15.8879" gradientUnits="userSpaceOnUse">
<stop stop-color="#F27121"/>
<stop offset="0.5" stop-color="#E94057"/>
<stop offset="1" stop-color="#8A2387"/>
</linearGradient>
<linearGradient id="paint35_linear_12678_15148" x1="25.2313" y1="20.225" x2="31.1256" y2="20.225" gradientUnits="userSpaceOnUse">
<stop stop-color="#F27121"/>
<stop offset="0.5" stop-color="#E94057"/>
<stop offset="1" stop-color="#8A2387"/>
</linearGradient>
<linearGradient id="paint36_linear_12678_15148" x1="7.96311" y1="8.2697" x2="13.9474" y2="8.51836" gradientUnits="userSpaceOnUse">
<stop stop-color="#8A2387"/>
<stop offset="1" stop-color="#E94057"/>
</linearGradient>
</defs>
</svg>
