<svg width="70" height="26" viewBox="0 0 70 26" fill="none" xmlns="http://www.w3.org/2000/svg">
<path d="M10.7666 0.159113L6.38665 10.6749L2.00668 0.159113H0L5.38331 13.0675L0 25.9758H2.00668L6.38665 15.4601L10.7666 25.9758H12.754L7.3707 13.0675L12.754 0.159113H10.7666Z" fill="white"/>
<path d="M27.4367 25.9758C23.8736 25.9758 20.8314 24.7152 18.3102 22.194C15.789 19.6728 14.5284 16.6306 14.5284 13.0675C14.5284 9.50433 15.789 6.46215 18.3102 3.94094C20.8314 1.41972 23.8736 0.159113 27.4367 0.159113V1.99214C24.3881 1.99214 21.7833 3.07909 19.6223 5.253C17.4612 7.41404 16.3807 10.0189 16.3807 13.0675C16.3807 16.1161 17.4612 18.7209 19.6223 20.882C21.7833 23.043 24.3881 24.1235 27.4367 24.1235V25.9758Z" fill="white"/>
<path d="M44.6664 0.159113L38.5692 19.7628L32.4913 0.159113H30.5618L38.5692 25.9758L46.5959 0.159113H44.6664Z" fill="white"/>
<path d="M70 0.0240479L59.8701 8.53315L49.7209 0.0240479V25.9758H51.5733V3.97953L59.8701 10.945L68.167 3.97953V25.9758H70V0.0240479Z" fill="white"/>
</svg>
