<svg width="32" height="32" viewBox="0 0 32 32" fill="none" xmlns="http://www.w3.org/2000/svg">
<g clip-path="url(#clip0_602_2682)">
<path d="M19.8552 14.662L22.204 10.6737L28.5388 20.5384L28.541 22.4311L28.5205 9.40353C28.5045 9.08428 28.3358 8.7924 28.0667 8.62137L16.6628 2.06312C16.3868 1.93086 16.0653 1.93314 15.7917 2.06768C15.7575 2.08592 15.7232 2.10416 15.689 2.12697L15.6503 2.15205L4.58151 8.56665L4.53819 8.58489C4.48118 8.61225 4.42645 8.64418 4.374 8.68066C4.16649 8.82889 4.02511 9.05236 3.9795 9.3032C3.97266 9.34196 3.9681 9.38073 3.96582 9.41721L3.98406 20.0345L9.8833 10.8903C10.6267 9.67717 12.2435 9.28723 13.7462 9.30776L15.5089 9.35336L5.11967 26.0135L6.34422 26.7181L16.8589 9.36933L21.5062 9.35336L11.0189 27.14L15.3903 29.6552L15.9125 29.9562C16.1383 30.0452 16.3868 30.0497 16.6171 29.9699L28.1807 23.268L25.9688 24.5495L19.8552 14.662ZM20.7514 27.5733L16.3367 20.6456L19.0297 16.0735L24.8264 25.2108L20.7514 27.5733Z" fill="#2D374B"/>
<path d="M16.3369 20.6455L20.7517 27.5732L24.8289 25.2107L19.0323 16.0757L16.3369 20.6455Z" fill="#28A0F0"/>
<path d="M28.5406 22.431L28.5384 20.5383L22.2036 10.6736L19.8525 14.6596L25.9661 24.5495L28.1781 23.2679C28.3947 23.0923 28.527 22.8324 28.5406 22.5542V22.431Z" fill="#28A0F0"/>
<path d="M2 24.2165L5.12178 26.0157L15.511 9.35558L13.7483 9.30997C12.2456 9.28944 10.6288 9.67938 9.88541 10.8925L3.98618 20.0367L2.00228 23.0855L2 24.2165Z" fill="white"/>
<path d="M21.5057 9.35559L16.8584 9.37155L6.34375 26.7204L10.0197 28.8365L11.0184 27.1422L21.5057 9.35559Z" fill="white"/>
<path d="M30.4997 9.33045C30.4563 8.35675 29.9364 7.46742 29.111 6.95206L17.5588 0.309433C16.7219 -0.101028 15.7436 -0.101028 14.909 0.309433C14.8132 0.35732 3.67377 6.81752 3.67377 6.81752C3.5187 6.89277 3.37048 6.97942 3.23138 7.07976C2.49939 7.60196 2.04561 8.42972 2 9.32589V23.0855L3.98389 20.0366L3.96793 9.42167C3.98618 9.1275 4.13668 8.85614 4.37611 8.68284C4.42856 8.64407 15.7573 2.0881 15.7938 2.06985C16.0674 1.93531 16.3889 1.93531 16.6649 2.06529L28.0688 8.62583C28.3379 8.79685 28.5067 9.08874 28.5226 9.40798V22.5587C28.5181 22.8346 28.3926 23.0946 28.1829 23.2724L25.9709 24.554L24.8307 25.2153L20.7535 27.5777L16.6193 29.9744C16.3912 30.0542 16.1404 30.0496 15.9146 29.9607L11.0233 27.1467L10.0245 28.841L14.421 31.3722C14.5669 31.4543 14.6969 31.5273 14.8018 31.5888C14.966 31.6801 15.0777 31.7439 15.1188 31.7621C15.4859 31.9241 15.885 32.0061 16.2863 32.0016C16.6557 32.0016 17.0206 31.9332 17.3626 31.7986L29.3732 24.8436C30.0596 24.31 30.4723 23.5005 30.5042 22.6317L30.4997 9.33045Z" fill="#96BEDC"/>
</g>
<defs>
<clipPath id="clip0_602_2682">
<rect width="32" height="32" fill="white"/>
</clipPath>
</defs>
</svg>
