<svg width="32" height="32" viewBox="0 0 32 32" fill="none" xmlns="http://www.w3.org/2000/svg">
<g clip-path="url(#clip0_602_2318)">
<path fill-rule="evenodd" clip-rule="evenodd" d="M16 0C24.8366 0 32 7.16343 32 16C32 24.8366 24.8366 32 16 32C7.16343 32 0 24.8366 0 16C0 7.16343 7.16343 0 16 0Z" fill="#2E3148"/>
<path fill-rule="evenodd" clip-rule="evenodd" d="M15.97 6.77271C21.0695 6.77271 25.1973 10.9004 25.1973 16C25.1973 21.0996 21.0695 25.2273 15.97 25.2273C10.8704 25.2273 6.74268 21.0996 6.74268 16C6.74268 10.9004 10.8704 6.77271 15.97 6.77271Z" fill="#1B1E36"/>
<path fill-rule="evenodd" clip-rule="evenodd" d="M16.2506 2.7351C16.1203 2.61488 16.0602 2.61488 16.0502 2.61488C16.0402 2.61488 15.97 2.61488 15.8498 2.7351C15.7196 2.85533 15.5593 3.06572 15.399 3.38632C15.0684 4.02753 14.7377 4.98933 14.4672 6.23166C14.1566 7.63429 13.9062 9.33748 13.7559 11.2511C14.5073 11.6117 15.2787 12.0125 16.0602 12.4333C16.8417 12.0125 17.6131 11.6117 18.3645 11.2511C18.2143 9.33748 17.9638 7.62427 17.6532 6.23166C17.3727 4.98933 17.0521 4.02753 16.7215 3.38632C16.5411 3.06572 16.3808 2.85533 16.2506 2.7351ZM15.389 12.794C14.8179 12.4834 14.2468 12.2029 13.6958 11.9223C13.6557 12.5435 13.6256 13.1747 13.5956 13.8259C13.8861 13.6456 14.1867 13.4752 14.4873 13.3049C14.7878 13.1346 15.0884 12.9543 15.389 12.794ZM13.1347 10.9705C13.5856 5.7207 14.7177 1.99371 16.0402 1.99371C17.3627 1.99371 18.4948 5.7207 18.9456 10.9705C23.7246 8.73636 27.5117 7.8547 28.1729 8.99685C28.8342 10.149 26.1692 12.9843 21.8511 16C26.1792 19.0156 28.8342 21.861 28.1729 23.0031C27.5117 24.1553 23.7146 23.2636 18.9456 21.0294C18.4948 26.2793 17.3627 30.0062 16.0402 30.0062C14.7177 30.0062 13.5856 26.2793 13.1347 21.0294C8.35577 23.2636 4.56867 24.1453 3.90743 23.0031C3.24619 21.851 5.91118 19.0156 10.2293 16C5.91118 12.9843 3.24619 10.139 3.90743 8.99685C4.56867 7.84469 8.36579 8.72634 13.1347 10.9705ZM10.7803 15.6193C9.19734 14.5272 7.83479 13.4552 6.78282 12.4934C5.84105 11.6318 5.16979 10.8704 4.77906 10.2592C4.5887 9.95865 4.48852 9.7182 4.44844 9.53786C4.40836 9.36754 4.43842 9.30743 4.44844 9.30743C4.45846 9.29741 4.48851 9.24731 4.64882 9.1872C4.81913 9.13711 5.07962 9.10705 5.4403 9.11707C6.16165 9.14713 7.15351 9.3475 8.3758 9.72822C9.74838 10.159 11.3514 10.8002 13.0846 11.6218C13.0245 12.4533 12.9844 13.3149 12.9544 14.2066C12.203 14.6875 11.4716 15.1484 10.7803 15.6193ZM10.7803 16.3807C9.19734 17.4727 7.83479 18.5447 6.78282 19.5066C5.84105 20.3682 5.16979 21.1296 4.77906 21.7407C4.5887 22.0413 4.48852 22.2818 4.44844 22.4621C4.40836 22.6324 4.43842 22.6925 4.44844 22.6925C4.45846 22.7025 4.48851 22.7526 4.64882 22.8128C4.81913 22.8628 5.07962 22.8929 5.4403 22.8829C6.16165 22.8528 7.15351 22.6525 8.3758 22.2717C9.74838 21.8409 11.3514 21.1997 13.0846 20.3782C13.0245 19.5466 12.9844 18.685 12.9544 17.7933C12.203 17.3124 11.4716 16.8416 10.7803 16.3807ZM12.9444 17.0319C12.3933 16.6913 11.8523 16.3406 11.3414 16C11.8523 15.6593 12.3933 15.3087 12.9444 14.968C12.9344 15.3087 12.9344 15.6593 12.9344 16C12.9344 16.3506 12.9344 16.6913 12.9444 17.0319ZM13.5756 17.4226C13.5655 16.9518 13.5555 16.4809 13.5555 16C13.5555 15.5191 13.5655 15.0382 13.5756 14.5773C13.9763 14.3369 14.3871 14.0864 14.8079 13.8459C15.2287 13.6055 15.6394 13.3751 16.0502 13.1446C16.461 13.365 16.8818 13.6055 17.2925 13.8459C17.7133 14.0864 18.1241 14.3268 18.5248 14.5773C18.5349 15.0482 18.5449 15.5191 18.5449 16C18.5449 16.4809 18.5349 16.9618 18.5248 17.4226C18.1241 17.6631 17.7133 17.9136 17.2925 18.154C16.8717 18.3945 16.461 18.6249 16.0502 18.8553C15.6394 18.6349 15.2186 18.3945 14.8079 18.154C14.3871 17.9136 13.9763 17.6731 13.5756 17.4226ZM13.5956 18.1741C13.6156 18.8253 13.6557 19.4565 13.6958 20.0776C14.2468 19.8071 14.8179 19.5166 15.389 19.206C15.0884 19.0357 14.7878 18.8654 14.4873 18.695C14.1867 18.5247 13.8861 18.3444 13.5956 18.1741ZM16.0502 19.5667C15.2687 19.9875 14.4973 20.3882 13.7459 20.7489C13.8962 22.6625 14.1466 24.3757 14.4572 25.7683C14.7377 27.0106 15.0583 27.9724 15.389 28.6136C15.5593 28.9342 15.7096 29.1446 15.8398 29.2649C15.97 29.3851 16.0302 29.3851 16.0402 29.3851C16.0502 29.3851 16.1203 29.3851 16.2406 29.2649C16.3708 29.1446 16.5311 28.9342 16.6914 28.6136C17.022 27.9724 17.3526 27.0106 17.6231 25.7683C17.9337 24.3657 18.1842 22.6625 18.3345 20.7489C17.6031 20.3782 16.8317 19.9875 16.0502 19.5667ZM19.0057 20.3682C20.739 21.1897 22.342 21.8309 23.7146 22.2617C24.9268 22.6424 25.9287 22.8528 26.6501 22.8729C27.0107 22.8829 27.2712 22.8528 27.4416 22.8027C27.6019 22.7526 27.6419 22.6925 27.6419 22.6825C27.6519 22.6725 27.682 22.6124 27.6419 22.4521C27.6019 22.2818 27.5017 22.0413 27.3113 21.7307C26.9306 21.1196 26.2493 20.3582 25.3076 19.4965C24.2456 18.5247 22.893 17.4627 21.3101 16.3707C20.6188 16.8416 19.8974 17.3024 19.136 17.7733C19.1159 18.675 19.0658 19.5366 19.0057 20.3682ZM21.3101 15.6193C22.893 14.5272 24.2556 13.4552 25.3076 12.4934C26.2493 11.6318 26.9206 10.8704 27.3113 10.2592C27.5017 9.95865 27.6019 9.7182 27.6419 9.53786C27.682 9.36754 27.6519 9.30743 27.6419 9.30743C27.6319 9.29741 27.6019 9.24731 27.4416 9.1872C27.2712 9.13711 27.0107 9.10705 26.6501 9.11707C25.9287 9.14713 24.9369 9.3475 23.7146 9.72822C22.342 10.159 20.739 10.8002 19.0057 11.6218C19.0658 12.4533 19.1059 13.3149 19.136 14.2066C19.8974 14.6875 20.6188 15.1484 21.3101 15.6193ZM19.156 14.968C19.707 15.3087 20.238 15.6593 20.759 16C20.2481 16.3406 19.707 16.6913 19.156 17.0319C19.166 16.6913 19.166 16.3406 19.166 16C19.166 15.6593 19.156 15.3087 19.156 14.968ZM18.4948 13.8259C18.4747 13.1747 18.4347 12.5435 18.3946 11.9223C17.8436 12.1928 17.2725 12.4834 16.7014 12.794C17.002 12.9643 17.3025 13.1346 17.6031 13.3049C17.9037 13.4752 18.2042 13.6556 18.4948 13.8259ZM18.4046 20.0776C17.8536 19.8071 17.2825 19.5166 16.7114 19.206C17.012 19.0357 17.3126 18.8654 17.6131 18.695C17.9137 18.5247 18.2143 18.3444 18.5048 18.1741C18.4747 18.8253 18.4447 19.4565 18.4046 20.0776Z" fill="#6F738F"/>
<path fill-rule="evenodd" clip-rule="evenodd" d="M7.09317 12.0727C7.63418 12.0727 8.07501 12.5135 8.07501 13.0545C8.07501 13.5955 7.63418 14.0364 7.09317 14.0364C6.55216 14.0364 6.11133 13.5955 6.11133 13.0545C6.11133 12.5135 6.55216 12.0727 7.09317 12.0727Z" fill="#B7B9C8"/>
<path fill-rule="evenodd" clip-rule="evenodd" d="M22.7525 8.7063C23.2935 8.7063 23.7344 9.14713 23.7344 9.68814C23.7344 10.2292 23.2935 10.67 22.7525 10.67C22.2115 10.67 21.7707 10.2292 21.7707 9.68814C21.7607 9.14713 22.2015 8.7063 22.7525 8.7063Z" fill="#B7B9C8"/>
<path fill-rule="evenodd" clip-rule="evenodd" d="M14.0665 24.1653C14.6075 24.1653 15.0483 24.6061 15.0483 25.1471C15.0483 25.6881 14.6075 26.129 14.0665 26.129C13.5255 26.129 13.0846 25.6881 13.0846 25.1471C13.0746 24.6061 13.5154 24.1653 14.0665 24.1653Z" fill="#B7B9C8"/>
<path fill-rule="evenodd" clip-rule="evenodd" d="M15.99 14.3268C16.9118 14.3268 17.6632 15.0782 17.6632 16C17.6632 16.9217 16.9118 17.6731 15.99 17.6731C15.0683 17.6731 14.3169 16.9217 14.3169 16C14.3169 15.0782 15.0683 14.3268 15.99 14.3268Z" fill="#B7B9C8"/>
</g>
<defs>
<clipPath id="clip0_602_2318">
<rect width="32" height="32" fill="white"/>
</clipPath>
</defs>
</svg>
