<svg width="24" height="24" viewBox="0 0 24 24" fill="none" xmlns="http://www.w3.org/2000/svg">
<path d="M12 23.75C18.4893 23.75 23.75 18.4893 23.75 12C23.75 5.51065 18.4893 0.25 12 0.25C5.51065 0.25 0.25 5.51065 0.25 12C0.25 18.4893 5.51065 23.75 12 23.75Z" fill="#F4F4F4"/>
<path d="M6.86865 12.1526L12.0579 15.1653L12.9235 8.77051L6.86865 12.1526Z" fill="#393939"/>
<path d="M12.0576 3.69531L9.59888 12.3627L17.2462 12.1526L12.0576 3.69531Z" fill="#343434"/>
<path d="M12.0579 3.69531L6.86865 12.1526L12.0579 9.83414V3.69531Z" fill="#8C8C8C"/>
<path d="M12.0579 20.3023L12.1855 16.2009L6.86865 13.1191L12.0579 20.3023Z" fill="#8C8C8C"/>
<path d="M12.0583 16.1311V20.3023L17.2504 13.1191L12.0583 16.1311Z" fill="#3C3C3B"/>
<path d="M12.0583 15.1647L17.2469 12.1521L12.0583 9.83496V15.1647Z" fill="#141414"/>
</svg>
