<svg width="32" height="32" viewBox="0 0 32 32" fill="none" xmlns="http://www.w3.org/2000/svg">
<g clip-path="url(#clip0_602_2390)">
<path d="M31.9636 0.0363159H0.0361328V31.9638H31.9636V0.0363159Z" fill="black" stroke="black" stroke-miterlimit="10"/>
<path d="M27.1094 9.24432C26.732 8.94681 26.2821 8.54046 25.4622 8.43887C24.693 8.33728 23.9094 8.85248 23.3796 9.19352C22.8499 9.53457 21.8486 10.5359 21.435 10.8407C21.0214 11.1455 19.962 11.4284 18.2567 12.4516C16.5515 13.4747 9.86128 17.7704 9.86128 17.7704L11.6028 17.7922L3.8386 21.7904H4.61502L3.49756 22.6393C3.49756 22.6393 4.48441 22.9006 5.31162 22.3781V22.6176C5.31162 22.6176 14.5561 18.9749 16.3411 19.9183L15.2527 20.2375C15.347 20.2375 17.103 20.3536 17.103 20.3536C17.1456 20.7173 17.2679 21.067 17.461 21.3781C17.6541 21.6891 17.9134 21.9537 18.2205 22.1532C19.2799 22.8498 19.3016 23.2344 19.3016 23.2344C19.3016 23.2344 18.7502 23.4593 18.7502 23.7423C18.7502 23.7423 19.5629 23.4956 20.3175 23.5174C20.7965 23.5355 21.2715 23.611 21.7325 23.7423C21.7325 23.7423 21.6744 23.4375 20.9416 23.2344C20.2087 23.0312 19.483 22.233 19.1275 21.7976C18.9097 21.5205 18.7678 21.1915 18.7156 20.8429C18.6634 20.4943 18.7029 20.1382 18.83 19.8094C19.084 19.1491 19.9692 18.7863 21.7978 17.843C23.9529 16.7255 24.4463 15.8983 24.7511 15.2525C25.0558 14.6067 25.5057 13.3223 25.7597 12.7201C26.079 11.9436 26.4708 11.53 26.7973 11.2833C27.1239 11.0366 28.5751 10.4924 28.5751 10.4924C28.5751 10.4924 27.4649 9.52731 27.1094 9.24432Z" fill="white"/>
</g>
<defs>
<clipPath id="clip0_602_2390">
<path d="M0 16C0 7.16344 7.16344 0 16 0V0C24.8366 0 32 7.16344 32 16V16C32 24.8366 24.8366 32 16 32V32C7.16344 32 0 24.8366 0 16V16Z" fill="white"/>
</clipPath>
</defs>
</svg>
