<svg width="32" height="32" viewBox="0 0 32 32" fill="none" xmlns="http://www.w3.org/2000/svg">
<path d="M0 16C0 7.16344 7.16344 0 16 0V0C24.8366 0 32 7.16344 32 16V16C32 24.8366 24.8366 32 16 32V32C7.16344 32 0 24.8366 0 16V16Z" fill="#0C0600"/>
<path d="M25.3966 15.485C25.1272 15.485 24.8577 15.5187 24.6219 15.6534C24.3188 15.8555 24.083 16.3271 24.083 16.7649C24.083 17.1354 24.4198 17.607 24.7904 17.8091C25.8345 18.348 26.9461 17.1354 26.4071 16.125C26.2387 15.7544 25.8008 15.5187 25.3966 15.485Z" fill="#FF8500"/>
<path d="M16.9598 8.27701C17.3303 8.34437 17.8692 9.62433 17.9703 10.7022C18.004 10.938 17.9703 11.4432 17.9703 11.8137C17.9366 12.3863 17.8692 12.5547 17.6671 12.8242C17.2293 13.4642 16.4209 13.8684 15.3767 13.9357C15.0736 13.9694 14.5683 14.0031 14.2988 14.0031C13.861 13.9694 13.8273 13.9694 13.8947 13.801C13.9283 13.7336 14.0294 13.4979 14.0968 13.2958C14.5346 11.9484 15.5114 9.79274 16.0167 9.11908C16.3535 8.61384 16.7577 8.24332 16.9598 8.27701ZM16.623 5.34659C16.4546 5.34659 16.2525 5.38027 15.9493 5.48132C15.5114 5.61605 15.1072 5.85183 14.7367 6.15498C14.1978 6.55917 14.1304 6.59286 14.0968 6.42444C14.0631 6.15498 13.6252 5.78447 13.221 5.75078C12.8168 5.68342 12.3116 5.88551 12.1095 6.18866C12.0084 6.32339 11.7389 6.76127 11.4695 7.19915C10.9979 8.00754 10.8295 8.58015 10.9979 8.91698C11.099 9.11908 11.0653 9.35486 10.7621 10.8032C10.2232 13.4305 9.34745 18.8535 9.34745 19.8976C9.31377 22.2554 9.34745 24.4785 9.38113 24.9164C9.48218 25.59 9.71796 26.0616 10.1558 26.3648C10.5937 26.6679 10.8295 26.7353 11.3011 26.6005C11.7726 26.4995 12.0084 26.3311 12.2779 25.9606C12.581 25.5227 12.6484 25.0511 12.6484 22.9965C12.6147 20.5039 12.9515 16.563 13.1536 16.3272C13.221 16.2936 13.6589 16.2599 14.1641 16.3272C16.0504 16.4957 17.5998 16.1588 18.7787 15.2831C20.0586 14.3399 20.5976 13.2621 20.6986 11.4432C20.7997 9.05171 20.025 6.92969 18.644 5.85183C18.2061 5.54869 18.0713 5.515 17.3977 5.41395C17.0609 5.34659 16.8251 5.31291 16.623 5.34659Z" fill="white"/>
</svg>
