<svg width="32" height="32" viewBox="0 0 32 32" fill="none" xmlns="http://www.w3.org/2000/svg">
<path d="M0 16C0 7.16344 7.16344 0 16 0V0C24.8366 0 32 7.16344 32 16V16C32 24.8366 24.8366 32 16 32V32C7.16344 32 0 24.8366 0 16V16Z" fill="white"/>
<path d="M25.3966 15.485C25.1272 15.485 24.8577 15.5187 24.6219 15.6534C24.3188 15.8555 24.083 16.3271 24.083 16.7649C24.083 17.1354 24.4198 17.607 24.7904 17.8091C25.8345 18.348 26.9461 17.1354 26.4071 16.125C26.2387 15.7544 25.8008 15.5187 25.3966 15.485Z" fill="#FF8500"/>
<path d="M16.9593 8.27701C17.3298 8.34437 17.8688 9.62433 17.9698 10.7022C18.0035 10.938 17.9698 11.4432 17.9698 11.8137C17.9361 12.3863 17.8688 12.5547 17.6667 12.8242C17.2288 13.4642 16.4204 13.8684 15.3762 13.9357C15.0731 13.9694 14.5678 14.0031 14.2984 14.0031C13.8605 13.9694 13.8268 13.9694 13.8942 13.801C13.9278 13.7336 14.0289 13.4979 14.0963 13.2958C14.5341 11.9484 15.5109 9.79274 16.0162 9.11908C16.353 8.61384 16.7572 8.24332 16.9593 8.27701ZM16.6225 5.34659C16.4541 5.34659 16.252 5.38027 15.9488 5.48132C15.5109 5.61605 15.1068 5.85183 14.7362 6.15498C14.1973 6.55917 14.1299 6.59286 14.0963 6.42444C14.0626 6.15498 13.6247 5.78447 13.2205 5.75078C12.8163 5.68342 12.3111 5.88551 12.109 6.18866C12.0079 6.32339 11.7385 6.76127 11.469 7.19915C10.9974 8.00754 10.829 8.58015 10.9974 8.91698C11.0985 9.11908 11.0648 9.35486 10.7616 10.8032C10.2227 13.4305 9.34696 18.8535 9.34696 19.8976C9.31328 22.2554 9.34696 24.4785 9.38064 24.9164C9.48169 25.59 9.71747 26.0616 10.1554 26.3648C10.5932 26.6679 10.829 26.7353 11.3006 26.6005C11.7721 26.4995 12.0079 26.3311 12.2774 25.9606C12.5805 25.5227 12.6479 25.0511 12.6479 22.9965C12.6142 20.5039 12.951 16.563 13.1531 16.3272C13.2205 16.2936 13.6584 16.2599 14.1636 16.3272C16.0499 16.4957 17.5993 16.1588 18.7782 15.2831C20.0582 14.3399 20.5971 13.2621 20.6981 11.4432C20.7992 9.05171 20.0245 6.92969 18.6435 5.85183C18.2056 5.54869 18.0709 5.515 17.3972 5.41395C17.0604 5.34659 16.8246 5.31291 16.6225 5.34659Z" fill="#0C0600"/>
</svg>
