<svg width="32" height="32" viewBox="0 0 32 32" fill="none" xmlns="http://www.w3.org/2000/svg">
<circle cx="16" cy="16" r="16" fill="#E6007A"/>
<path d="M16.0005 9.80816C18.0309 9.80816 19.6768 8.80643 19.6768 7.57074C19.6768 6.33504 18.0309 5.33331 16.0005 5.33331C13.9701 5.33331 12.3242 6.33504 12.3242 7.57074C12.3242 8.80643 13.9701 9.80816 16.0005 9.80816Z" fill="white"/>
<path d="M16.0005 26.6668C18.0309 26.6668 19.6768 25.6651 19.6768 24.4294C19.6768 23.1937 18.0309 22.192 16.0005 22.192C13.9701 22.192 12.3242 23.1937 12.3242 24.4294C12.3242 25.6651 13.9701 26.6668 16.0005 26.6668Z" fill="white"/>
<path d="M10.8774 12.9053C11.8925 11.0653 11.886 9.07253 10.8626 8.45426C9.83934 7.836 8.18682 8.82637 7.17164 10.6663C6.15646 12.5063 6.16305 14.4991 7.18636 15.1173C8.20966 15.7356 9.86218 14.7452 10.8774 12.9053Z" fill="white"/>
<path d="M24.8265 21.3336C25.8417 19.4936 25.8357 17.5012 24.8131 16.8833C23.7904 16.2655 22.1385 17.2562 21.1233 19.0961C20.1081 20.9361 20.1142 22.9285 21.1368 23.5464C22.1594 24.1642 23.8113 23.1735 24.8265 21.3336Z" fill="white"/>
<path d="M10.8641 23.546C11.8874 22.9277 11.894 20.9349 10.8788 19.095C9.86365 17.255 8.21113 16.2646 7.18782 16.8829C6.16452 17.5012 6.15793 19.494 7.17311 21.3339C8.18828 23.1739 9.8408 24.1642 10.8641 23.546Z" fill="white"/>
<path d="M24.8145 15.118C25.8371 14.5001 25.8432 12.5077 24.828 10.6677C23.8128 8.82776 22.1608 7.83705 21.1382 8.4549C20.1156 9.07274 20.1096 11.0652 21.1248 12.9051C22.1399 14.7451 23.7919 15.7358 24.8145 15.118Z" fill="white"/>
</svg>
